<svg width="105" height="105" viewBox="0 0 105 105" fill="none" xmlns="http://www.w3.org/2000/svg">
<g clip-path="url(#clip0_416_574)">
<path d="M74.8051 34.5772C73.9704 33.7746 72.7183 33.1646 71.0488 32.7472C69.3793 32.3298 67.6778 32.073 65.912 31.9446C64.1462 31.8162 61.8025 31.752 58.8488 31.752H32.1052V65.0129H51.256V53.9366H58.8649C60.8554 53.9366 62.5249 53.9206 63.8733 53.8724C65.2217 53.8243 66.6022 53.7119 68.0309 53.5353C69.4596 53.3587 70.6154 53.1019 71.5304 52.7808C72.4454 52.4598 73.2962 52.0264 74.147 51.4966C74.9817 50.9669 75.6238 50.3087 76.0733 49.5222C76.5067 48.7356 76.8759 47.7885 77.1488 46.6969C77.4217 45.6053 77.5501 44.3372 77.5501 42.8764C77.5501 40.8538 77.3093 39.1682 76.8117 37.8198C76.3141 36.4714 75.6559 35.3959 74.8212 34.5933L74.8051 34.5772ZM59.6996 46.408C58.9291 47.0501 57.6288 47.3711 55.8309 47.3711H51.272V38.3014H55.8309C57.6449 38.3014 58.9291 38.6225 59.6996 39.2646C60.4701 39.9067 60.8715 41.1106 60.8715 42.8603C60.8715 44.6101 60.4862 45.7498 59.6996 46.408Z" fill="#2D0000"/>
<path d="M60.2775 74.1148H36.327V76.7475H60.2775V78.8504L69.4114 75.4312L60.2775 72.012V74.1148Z" fill="#2D0000"/>
<path d="M14.1583 37.1297L15.4104 34.4328C16.1168 32.9078 16.2933 32.4263 16.3575 31.8805C16.4378 30.9013 15.9562 30.3234 14.3991 29.601C12.6012 28.7663 11.8468 28.8786 11.0441 30.1147C10.8033 30.4839 10.707 30.6605 10.097 31.9928L7.86572 36.8086L14.8968 40.0512L15.892 37.9162L14.1744 37.1297H14.1583ZM13.6286 33.6463L12.3926 36.327L10.5947 35.5084L11.8307 32.8276C12.2802 31.8965 12.2802 31.8805 12.4086 31.752C12.6333 31.5273 12.8902 31.5273 13.3878 31.752C13.8694 31.9768 14.0299 32.1213 14.062 32.3781C14.0781 32.6028 14.062 32.651 13.6125 33.6463H13.6286Z" fill="#2D0000"/>
<path d="M29.6812 20.3708L28.6378 18.7013L31.4631 16.9355C32.2817 16.4218 32.4423 16.3416 32.6831 16.4218C32.9399 16.486 33.1325 16.6947 33.5981 17.4331L33.8067 17.7702L35.7812 16.5342L35.3959 15.9242C34.4809 14.3831 34.1278 14.2066 33.0362 14.7202C33.3894 14.4152 33.5338 14.2226 33.6302 13.9658C33.8228 13.4842 33.6783 13.0347 33.0683 12.0716C32.346 10.9318 31.9286 10.5947 31.2383 10.5947C30.8531 10.5947 29.906 11.071 28.397 12.0234L23.5652 15.0573L27.6746 21.6229L29.6652 20.3708H29.6812ZM26.5991 15.4587L29.4083 13.6929C30.3233 13.131 30.3554 13.115 30.532 13.0829C30.7889 13.0347 30.9975 13.1792 31.2704 13.6287C31.5273 14.046 31.5915 14.2708 31.4952 14.4795C31.4417 14.5972 31.0885 14.8754 30.4357 15.3142L27.6265 17.08L26.6152 15.4587H26.5991Z" fill="#2D0000"/>
<path d="M51.0188 5.42644L48.5507 5.56616L48.988 13.2911L51.4561 13.1514L51.0188 5.42644Z" fill="#2D0000"/>
<path d="M69.8929 10.6108L70.2621 10.8195L70.1177 17.2887L71.8513 18.2198L77.1326 14.4635L77.4858 14.6561L74.7087 19.7448L76.7634 20.8363L80.4074 13.9979L76.6511 12.0074L72.2527 15.3464L72.5898 9.84031L68.8174 7.83374L65.1735 14.6721L67.2282 15.7637L69.8929 10.6108Z" fill="#2D0000"/>
<path d="M91.3393 37.9966L88.498 32.3782L89.6056 31.8163L92.2703 37.1137L93.7953 36.3431L91.1306 31.0458L92.1259 30.5482L94.9351 36.1184L96.5724 35.2997L92.7198 27.6587L85.8011 31.1261L89.6698 38.8313L91.3393 37.9966Z" fill="#2D0000"/>
<path d="M13.436 64.098C12.842 63.183 12.0715 63.0385 10.691 63.5683C9.10178 64.1783 8.84494 64.8525 9.47099 66.6664L9.67967 67.2604L10.081 68.4483L10.6749 70.198C10.9318 70.9043 10.8836 71.113 10.4502 71.2735C10.0221 71.4341 9.50844 70.7277 8.90915 69.1546C8.3152 67.6135 8.25099 67.3567 8.29915 67.0998C8.34731 66.8912 8.45967 66.7949 8.89309 66.6183L8.07441 64.4833L7.72126 64.6117C6.726 64.997 6.37284 65.318 6.24442 65.9441C6.116 66.5701 6.35679 67.4851 7.22363 69.7325C8.05836 71.8835 8.45967 72.7825 8.78073 73.1517C9.34257 73.7938 10.081 73.858 11.3331 73.3764C12.3444 72.9911 12.7618 72.6219 12.8902 71.9959C13.0026 71.418 12.8902 70.9364 12.0394 68.5125C11.4936 66.9714 11.301 66.3614 11.2849 66.1367C11.2528 65.8959 11.3491 65.7354 11.622 65.6391C12.1518 65.4304 12.2481 65.5749 12.9705 67.437C13.5644 68.9941 13.6447 69.2669 13.6126 69.5077C13.5804 69.7004 13.5002 69.7806 13.0989 69.9572L13.9176 72.0762C14.062 72.028 14.2065 71.9798 14.2547 71.9638C15.1054 71.6267 15.4907 71.2896 15.6191 70.7438C15.7636 70.1017 15.571 69.2991 14.7683 67.2122C14.0941 65.4785 13.6768 64.4993 13.4199 64.1141L13.436 64.098Z" fill="#2D0000"/>
<path d="M25.6039 82.7512C23.1799 80.6001 22.602 80.1828 21.8476 80.1186C21.1091 80.0704 20.451 80.5359 19.0223 82.1412C17.5134 83.8428 17.1281 84.517 17.2726 85.2714C17.4171 86.0099 17.8986 86.5396 20.3226 88.7067C22.7144 90.8417 23.3084 91.2591 24.0628 91.3233C24.8012 91.3714 25.4433 90.9219 26.9362 89.2525C28.4131 87.5991 28.7983 86.9088 28.6539 86.1704C28.5094 85.432 28.0278 84.9022 25.6199 82.7512H25.6039ZM25.026 87.8559C24.3999 88.5622 24.111 88.7549 23.7739 88.7388C23.3886 88.7067 23.0676 88.482 21.6549 87.2299C20.1942 85.9296 19.9534 85.6567 19.8731 85.2714C19.8089 84.9183 19.9694 84.6454 20.6115 83.923C21.2697 83.1846 21.5907 82.8796 21.8797 82.7833C22.3613 82.6067 22.5378 82.7191 24.2715 84.2601C25.8768 85.6888 26.0533 85.8975 26.0373 86.2988C26.0373 86.6359 25.7805 87.0051 25.026 87.8559Z" fill="#2D0000"/>
<path d="M44.7385 96.0587C44.7064 96.2192 44.6101 96.5724 44.5298 96.8292C44.3211 97.5355 44.2248 97.7282 44.0001 97.8726C43.6951 98.0813 43.1975 98.0332 41.6243 97.664C39.6659 97.1984 39.2646 96.9737 39.2806 96.3316C39.2967 96.0105 39.2967 95.9945 39.5696 94.8066L40.4043 91.3392L38.1088 90.7935L37.2741 94.2608C37.0814 95.0741 36.9691 95.5664 36.9369 95.7377C36.7283 96.8613 36.7443 97.3429 37.0172 97.8245C37.4346 98.5629 38.3014 98.9321 41.1748 99.6224C42.9246 100.04 43.6951 100.184 44.4014 100.2C45.3003 100.232 46.0227 99.7669 46.3438 98.9321C46.5364 98.4184 46.5846 98.29 47.018 96.6045L47.8527 93.1371L45.5572 92.5913L44.7225 96.0587H44.7385Z" fill="#2D0000"/>
<path d="M66.7628 95.7055C67.1962 95.5289 67.3888 95.4005 67.5654 95.1757C67.9025 94.7744 67.9025 94.3089 67.6296 93.2013C67.3086 91.901 67.0196 91.4355 66.3615 91.2268C65.9869 91.1091 64.9381 91.2643 63.2151 91.6923L57.677 93.0407L59.5231 100.553L61.8025 99.9915L61.337 98.0813L64.5636 97.2947C65.5107 97.0699 65.6872 97.0378 65.8799 97.1823C66.1046 97.3268 66.217 97.5836 66.4257 98.4344L66.522 98.8357L68.7693 98.2899L68.5928 97.5836C68.2075 95.8339 67.9346 95.5449 66.7307 95.7055H66.7628ZM65.3822 94.9671C65.2966 95.0634 64.8739 95.2132 64.1141 95.4165L60.8875 96.2031L60.4381 94.3571L63.6646 93.5705C64.708 93.3297 64.7401 93.3136 64.9167 93.3457C65.1736 93.3939 65.318 93.5865 65.4465 94.0842C65.5588 94.5497 65.5428 94.8065 65.3983 94.951L65.3822 94.9671Z" fill="#2D0000"/>
<path d="M85.9937 83.4736L84.2119 85.0307C84.9503 85.8975 84.9342 85.9296 82.9919 87.6312C81.1137 89.2685 81.0816 89.2685 79.7653 87.7756C78.9948 86.8928 78.77 86.4914 78.8182 86.1383C78.8664 85.8493 79.1714 85.5283 80.279 84.5651C81.4027 83.5859 81.9645 83.2007 82.1892 83.1846C82.3658 83.1846 82.4621 83.2488 82.8153 83.618L84.5971 82.077L84.3403 81.788C83.5216 80.857 82.9758 80.568 82.2535 80.7607C81.6756 80.9051 81.0656 81.3065 79.5085 82.6709C76.4585 85.3357 75.9448 86.042 76.314 87.1014C76.4585 87.5349 76.8437 88.0485 77.9835 89.3648C78.6256 90.1033 79.059 90.5688 79.3158 90.8096C79.9098 91.3393 80.3592 91.5159 80.9371 91.4035C81.6435 91.2591 82.4461 90.6972 84.7256 88.7067C86.0258 87.583 86.6198 86.973 86.9569 86.4112C87.4224 85.6407 87.294 84.9985 86.4753 84.0514C86.395 83.9712 86.2827 83.8428 85.9777 83.5217L85.9937 83.4736Z" fill="#2D0000"/>
<path d="M95.5129 74.9656L98.8358 67.0196L97.1342 66.2972L94.6942 72.1083L93.5706 71.6267L95.85 66.1528L94.2929 65.4946L91.9974 70.9685L90.954 70.5351L93.3619 64.7722L91.6924 64.0659L88.3695 71.9638L95.5129 74.9656Z" fill="#2D0000"/>
<path d="M52.508 0C23.501 0 0 23.501 0 52.508C0 81.515 23.501 105.016 52.508 105.016C81.515 105.016 105.016 81.515 105.016 52.508C105.016 23.501 81.499 0 52.508 0ZM52.508 102.817C25.1384 102.817 2.8092 80.8408 2.23131 53.5996H15.3302V51.4004H2.21526C2.8092 24.1752 25.1223 2.1992 52.508 2.1992C79.8937 2.1992 102.207 24.1752 102.785 51.4164H89.6858V53.6156H102.785C102.191 80.8569 79.8777 102.833 52.508 102.833V102.817Z" fill="#2D0000"/>
<path d="M52.508 15.3142C31.9767 15.3142 15.3302 31.9607 15.3302 52.492C15.3302 73.0233 31.9767 89.6698 52.508 89.6698C73.0393 89.6698 89.6858 73.0233 89.6858 52.492C89.6858 31.9607 73.0393 15.3142 52.508 15.3142ZM52.508 87.4867C33.2128 87.4867 17.5134 71.7872 17.5134 52.492C17.5134 33.1968 33.2128 17.4974 52.508 17.4974C71.8032 17.4974 87.5026 33.1968 87.5026 52.492C87.5026 71.7872 71.8032 87.4867 52.508 87.4867Z" fill="#2D0000"/>
</g>
<defs>
<clipPath id="clip0_416_574">
<rect width="105" height="105" fill="white"/>
</clipPath>
</defs>
</svg>
