<svg width="40" height="41" viewBox="0 0 40 41" fill="none" xmlns="http://www.w3.org/2000/svg">
<g clip-path="url(#clip0_466_3369)">
<rect x="0.429199" y="0.905273" width="39.1417" height="39.1417" rx="19.5709" fill="black"/>
<g clip-path="url(#clip1_466_3369)">
<path d="M19.8763 39.3919C30.4395 39.3919 39.0027 30.8288 39.0027 20.2656C39.0027 9.70234 30.4395 1.13916 19.8763 1.13916C9.31306 1.13916 0.749878 9.70234 0.749878 20.2656C0.749878 30.8288 9.31306 39.3919 19.8763 39.3919Z" fill="#CFFF00"/>
<path d="M12.8576 11.0823L2.50654 17.0595C2.50654 17.0595 1.40121 35.1224 19.1948 37.2048C27.5507 38.1826 34.2457 30.9463 34.2457 30.9463L31.911 23.9487L32.0272 28.426C32.0272 28.426 24.8306 32.6453 17.3583 29.1097C8.92026 25.1171 9.61322 16.2631 9.61322 16.2631L12.8576 11.0823Z" fill="#CFFF00"/>
<path d="M12.5679 11.362C9.33841 13.3828 6.07628 15.6409 2.80069 17.5689L3.09332 17.0955C3.07914 17.318 3.07844 17.5518 3.07702 17.7736C3.12378 22.9644 4.77114 28.3819 8.56043 32.0628C11.5044 34.9352 15.536 36.4189 19.5889 36.8249C20.0431 36.8674 20.5213 36.8965 20.9769 36.8851C24.0307 36.8589 26.9754 35.7734 29.5765 34.2012C31.1778 33.2234 32.6927 32.067 34.0134 30.7321C34.0134 30.7321 33.9454 31.046 33.9461 31.046L31.8056 23.984L32.021 23.9464L32.3306 28.4188L32.3419 28.5874C29.3349 30.4076 25.6101 31.2501 22.1085 30.9348C21.288 30.8469 20.4335 30.7038 19.6385 30.482C18.5069 30.1823 17.413 29.7204 16.3799 29.1712C16.1688 29.0543 15.9378 28.914 15.7273 28.7929C15.6721 28.7624 15.5658 28.6958 15.5141 28.6597C15.1031 28.3933 14.6666 28.0822 14.284 27.7811C14.1586 27.6741 13.8284 27.3956 13.7073 27.2915C13.5875 27.1795 13.2814 26.8855 13.1589 26.7693C13.0455 26.6439 12.75 26.342 12.6423 26.2159C12.4964 26.0345 12.2994 25.8184 12.1612 25.6321C11.9218 25.3238 11.6454 24.9285 11.4343 24.6033C10.0115 22.3437 9.27322 19.6661 9.26614 17.0006C9.26543 16.7207 9.27889 16.4486 9.30015 16.1666L9.34337 16.0951C9.83864 15.2767 10.3325 14.4881 10.8767 13.7108C11.4258 12.9272 12.0054 12.1528 12.5679 11.362ZM13.1475 10.803C12.1364 12.6898 11.0595 14.6504 9.88328 16.4323L9.93075 16.2885C9.92721 16.4366 9.92508 16.5981 9.93075 16.7505C10.0321 19.7299 11.0177 22.7221 12.896 25.0496C12.9754 25.1545 13.1114 25.304 13.1993 25.406C13.3672 25.6094 13.652 25.8971 13.8377 26.0905C13.9546 26.2003 14.2387 26.4639 14.3513 26.5695C14.4633 26.6616 14.7751 26.9216 14.892 27.018C15.1194 27.1781 15.4184 27.4225 15.6522 27.5664C15.7252 27.6146 16.0788 27.8434 16.1432 27.8866C19.8603 30.1646 24.1292 30.5338 28.3096 29.4624C29.3845 29.1861 30.4423 28.8233 31.4549 28.3663C31.598 28.3019 31.7446 28.231 31.875 28.1644L31.7248 28.4343L31.8013 23.9521L31.8141 23.2074C31.7978 23.4087 34.4187 30.4792 34.5455 30.8469L34.6072 31.0163L34.4775 31.1615C30.9589 34.7262 26.1032 37.5682 20.9911 37.6957C20.5079 37.7127 19.9991 37.6907 19.5152 37.6496C17.3357 37.4513 15.1733 36.9709 13.1319 36.1327C7.38708 33.8044 3.84437 28.8177 2.52577 22.8744C2.09852 20.9578 1.86329 18.9916 1.91997 17.0254L1.94193 16.703L2.2126 16.5521C5.72697 14.5512 9.57506 12.6912 13.1475 10.8044V10.803Z" fill="black"/>
<path d="M12.7426 11.3891L6.48898 17.1956L6.64486 16.9192C6.62998 17.0021 6.6151 17.1013 6.60164 17.1942C6.40538 18.6346 6.37562 20.0978 6.48827 21.5474C6.75894 25.4033 8.34678 29.369 11.6224 31.6201C12.2629 32.075 12.9551 32.4576 13.6743 32.7835L13.6467 32.8487C12.9105 32.5532 12.1942 32.1982 11.5239 31.766C10.8501 31.336 10.2244 30.8315 9.65475 30.2696C6.33098 26.9465 5.37586 21.9386 5.67699 17.3911C5.69896 17.1254 5.71738 16.8555 5.77406 16.5898L5.89452 16.4955L12.6299 11.2559L12.7426 11.3884V11.3891Z" fill="black"/>
<path d="M20.3866 26.0482C21.5472 25.9794 22.2439 21.8029 21.9428 16.7196C21.6417 11.6363 20.4568 7.57118 19.2962 7.63993C18.1357 7.70867 17.4389 11.8852 17.74 16.9685C18.0412 22.0518 19.2261 26.1169 20.3866 26.0482Z" fill="black"/>
<path d="M20.3564 26.0857C19.7867 26.0857 19.2015 25.1533 18.7055 23.4513C18.2053 21.7338 17.8489 19.4325 17.7036 16.9717C17.5577 14.5102 17.6399 12.1834 17.9339 10.4191C18.2308 8.63926 18.7133 7.64022 19.2929 7.6055C19.8753 7.56936 20.4698 8.50676 20.9743 10.2391C21.4745 11.9567 21.8309 14.258 21.9761 16.7188C22.1221 19.1802 22.0399 21.5071 21.7459 23.2714C21.449 25.0512 20.9665 26.0503 20.3869 26.085C20.3763 26.085 20.3663 26.0857 20.3557 26.0857H20.3564ZM19.3255 7.67494C19.3163 7.67494 19.3071 7.67494 19.2971 7.67564C18.1578 7.74296 17.4748 11.9113 17.7738 16.9668C18.0707 21.9811 19.2242 26.0141 20.355 26.0141C20.3642 26.0141 20.3734 26.0141 20.3833 26.0134C20.919 25.9815 21.3902 24.9775 21.6771 23.2593C21.9705 21.5 22.052 19.1781 21.9067 16.7223C21.6098 11.708 20.4563 7.67494 19.3255 7.67494Z" fill="black"/>
<path d="M23.7895 22.8104C23.2751 24.9353 23.2517 26.4771 23.8327 26.7088C24.729 27.0659 26.7235 24.1722 28.288 20.2462C28.4658 19.8005 28.6288 19.3612 28.7797 18.9312L23.7895 22.8111V22.8104Z" fill="black"/>
<path d="M23.9917 26.7728C23.9307 26.7728 23.8733 26.7621 23.8202 26.7409C23.2392 26.5092 23.2151 25.0368 23.7557 22.8014L23.7586 22.7893L23.7685 22.7815L28.8537 18.8279L28.814 18.9412C28.6595 19.3834 28.4937 19.8262 28.3216 20.2577C27.5641 22.1587 26.6827 23.8798 25.8395 25.1027C25.0892 26.1918 24.443 26.7728 23.9917 26.7728ZM23.8216 22.8304C23.3008 24.9887 23.3101 26.4617 23.8464 26.675C24.2574 26.8387 24.9624 26.2506 25.7814 25.0631C26.6218 23.8444 27.5004 22.129 28.2557 20.2322C28.4123 19.8383 28.5639 19.4351 28.707 19.0319L23.8216 22.8297V22.8304Z" fill="black"/>
<path d="M32.1107 24.1748L33.3506 29.9303L33.3782 30.0578C33.0615 30.5502 32.6385 30.9598 32.2191 31.3615C31.0273 32.4605 29.6102 33.3072 28.0854 33.8513C26.2156 34.516 24.1856 34.6973 22.2208 34.4862L22.2265 34.4153C23.2369 34.4685 24.2508 34.4196 25.2435 34.2588C25.986 34.139 26.7158 33.947 27.4237 33.6955C29.0561 33.1052 30.5632 32.148 31.7748 30.9052C32.1085 30.5573 32.4316 30.1896 32.6988 29.79L32.6428 30.0486L31.9335 24.2038L32.11 24.1741L32.1107 24.1748Z" fill="black"/>
</g>
</g>
<defs>
<clipPath id="clip0_466_3369">
<rect x="0.429199" y="0.905273" width="39.1417" height="39.1417" rx="19.5709" fill="white"/>
</clipPath>
<clipPath id="clip1_466_3369">
<rect width="39.1417" height="39.1417" fill="white" transform="translate(0.429199 0.905273)"/>
</clipPath>
</defs>
</svg>
