<svg width="145" height="107" viewBox="0 0 145 107" fill="none" xmlns="http://www.w3.org/2000/svg">
<g clip-path="url(#clip0_437_9579)">
<path d="M52.2733 57.7458C52.2733 57.7458 31.2713 24.4422 27.8908 5.42358C27.8908 5.42358 18.9665 33.8788 2.97428 31.1784C2.97428 31.1784 15.1764 42.1817 27.2348 25.038C27.2348 25.038 36.8103 50.1633 37.0464 58.385" fill="#2D0000"/>
<path d="M52.3071 57.725C46.2076 47.3256 40.5739 36.6266 35.7785 25.5623C33.9011 21.1556 32.1538 16.6709 30.8016 12.0851C29.6349 8.40585 28.9523 3.8128 28.3903 0.000244141C28.0723 0.906007 26.5008 5.34489 26.2672 6.13101C25.3751 8.75113 24.3199 11.3207 23.1259 13.8171C19.9349 20.3687 14.701 28.8449 7.0422 30.3497L6.48573 30.4413L5.92525 30.5015C5.8321 30.5143 5.73816 30.5151 5.64421 30.5208C4.11533 30.6541 1.99385 30.2261 0.473808 30.0221L2.44994 31.7598C6.30185 35.0054 11.8087 36.413 16.6603 34.8175C21.4405 33.2975 25.1318 29.55 27.9767 25.5591L26.3876 25.36C27.4757 28.0371 28.5308 30.7432 29.557 33.4532C31.6006 38.8782 33.5655 44.3385 35.1995 49.9023C35.7022 51.6392 36.1728 53.3937 36.5373 55.1651L36.6465 55.6974L36.7397 56.2322C36.8705 56.9445 36.9532 57.6639 37.007 58.3858L37.0873 58.3834C37.0689 57.1211 36.8946 55.8291 36.6931 54.5829C36.4136 52.9689 36.0764 51.3629 35.6966 49.7714C33.4932 40.7483 30.592 31.9171 27.5359 23.1486C26.4952 24.4775 25.4674 26.016 24.3641 27.2759C20.6078 31.6859 15.4888 34.8657 9.51939 33.5191C7.365 33.0285 5.2917 32.0416 3.56609 30.6532L3.50024 30.597L2.84502 31.9509C3.78852 32.1171 4.75932 32.1934 5.7229 32.1621C16.9815 31.722 24.6122 17.4145 28.2971 8.15934C28.5557 7.50009 28.8191 6.79828 29.0527 6.1286L29.1571 5.82105L26.5852 5.65644C27.2083 8.71741 28.1349 11.629 29.1956 14.523C31.5058 20.795 34.4327 26.8407 37.5185 32.7579C40.9015 39.1833 44.5382 45.4699 48.3532 51.6456C49.6251 53.7012 50.9139 55.7472 52.2396 57.7683L52.3079 57.7258L52.3071 57.725Z" fill="#2D0000"/>
<path d="M64.3565 79.5901C49.1338 79.5901 36.7934 67.2497 36.7934 52.027C36.7934 36.8043 49.1338 24.4639 64.3565 24.4639C79.5792 24.4639 91.9197 36.8043 91.9197 52.027C91.9197 67.2497 79.5792 79.5901 64.3565 79.5901Z" fill="#2D0000"/>
<path d="M36.4209 54.7C37.3187 63.4116 42.518 71.3202 50.066 75.7197C67.6007 85.9946 89.8208 75.0484 92.2868 54.8558C94.4171 37.0682 79.4471 21.8027 61.6265 23.5058C45.9901 24.9729 34.7146 39.1744 36.4201 54.7H36.4209ZM37.4158 54.6045C36.5663 44.9254 41.287 35.3843 49.3883 30.0766C62.509 21.3611 80.385 25.6337 88.0053 39.4699C97.3632 56.4112 86.2548 77.5144 66.9768 79.4118C61.3792 79.9811 55.5977 78.7566 50.7557 75.8803C43.1756 71.5153 38.0823 63.3 37.415 54.6037L37.4158 54.6045Z" fill="#2D0000"/>
<path d="M66.1152 37.0249L55.1537 63.3065C55.1537 63.3065 67.7123 70.0435 72.9148 61.6989C78.5373 52.6806 66.1152 37.0249 66.1152 37.0249Z" fill="#808080"/>
<path d="M64.8304 65.916C65.9553 65.916 67.0008 65.7803 67.9556 65.5089C70.077 64.9067 71.7569 63.6323 72.9485 61.7196C74.2365 59.6544 74.6789 57.068 74.2638 54.0327C73.9321 51.6077 73.0561 48.8928 71.6589 45.9619C69.2813 40.9746 66.177 37.0384 66.1456 36.999L66.1031 36.946L55.1014 63.324L55.1336 63.3408C55.1649 63.3577 58.3222 65.0351 62.0753 65.6703C63.0381 65.8333 63.9575 65.9144 64.8288 65.9144L64.8304 65.916ZM66.1256 37.1034C66.5054 37.5924 69.3656 41.3351 71.5874 45.9981C72.9806 48.9209 73.8543 51.6286 74.1843 54.0447C74.5962 57.0607 74.1578 59.6287 72.8802 61.6771C71.6991 63.5721 70.0345 64.8352 67.9331 65.431C66.25 65.9088 64.2835 65.9626 62.089 65.5916C58.5518 64.9934 55.5463 63.4661 55.2034 63.2878L66.124 37.1034H66.1256Z" fill="#2D0000"/>
<path d="M63.1881 53.5754C61.6292 47.9196 62.6453 42.7063 65.4576 41.9311C68.2699 41.1559 71.8134 45.1125 73.3724 50.7683C74.9313 56.4241 73.9153 61.6374 71.103 62.4126C68.2907 63.1878 64.7471 59.2312 63.1881 53.5754Z" fill="#808080"/>
<path d="M62.7531 53.6923C63.5449 56.2956 64.7959 58.8177 66.7078 60.781C67.6714 61.7494 68.8863 62.6415 70.3052 62.7034C73.1084 62.7138 74.1241 59.4441 74.3433 57.1443C74.7729 52.4999 73.3091 46.8092 70.155 43.2728C69.4203 42.469 68.5081 41.7287 67.4586 41.3625C66.0807 40.8583 64.5984 41.1947 63.5979 42.2771C61.0773 45.0699 61.7614 50.3776 62.7523 53.6931L62.7531 53.6923ZM63.6276 53.4514C63.0117 50.9565 62.8005 48.285 63.4035 45.7781C63.6958 44.5319 64.4225 42.9356 65.6487 42.6096C67.4297 42.1599 69.1954 43.9851 70.2016 45.318C72.5953 48.6143 73.9627 53.0162 73.7668 57.0961C73.6737 58.3833 73.4344 59.7066 72.7534 60.818C71.8782 62.2786 70.3734 62.7074 68.8646 61.906C66.0245 60.3635 64.4065 56.4497 63.6276 53.4514Z" fill="#2D0000"/>
<path d="M65.8876 53.6033C64.7714 49.5537 65.3027 45.875 67.0744 45.3866C68.8461 44.8983 71.1872 47.7853 72.3034 51.8348C73.4196 55.8844 72.8882 59.5631 71.1165 60.0514C69.3448 60.5398 67.0038 57.6528 65.8876 53.6033Z" fill="#2D0000"/>
<path d="M70.7211 60.1419C70.86 60.1419 70.9965 60.1242 71.1298 60.0873C72.9196 59.5943 73.4648 55.8861 72.3447 51.8214C71.2245 47.7567 68.8573 44.8515 67.0667 45.3446C66.1938 45.5855 65.5876 46.582 65.3612 48.1502C65.1363 49.7072 65.3106 51.6464 65.8518 53.6105C66.8884 57.3724 68.9938 60.1419 70.7219 60.1419H70.7211ZM67.481 45.3695C69.1697 45.3695 71.2398 48.1157 72.2668 51.8423C73.3749 55.8644 72.8554 59.5276 71.1073 60.0094C70.9788 60.0448 70.8479 60.0624 70.7138 60.0624C69.0252 60.0624 66.9551 57.3162 65.9281 53.5896C65.3901 51.6359 65.2166 49.7088 65.4398 48.1622C65.6615 46.6269 66.2468 45.6537 67.0876 45.4225C67.216 45.3871 67.3469 45.3703 67.481 45.3703V45.3695Z" fill="#2D0000"/>
<path d="M67.6425 53.1589C67.0606 51.0478 67.3379 49.1299 68.2618 48.8753C69.1856 48.6206 70.4063 50.1256 70.9882 52.2368C71.5701 54.3479 71.2929 56.2658 70.369 56.5204C69.4451 56.7751 68.2244 55.2701 67.6425 53.1589Z" fill="#808080"/>
<path d="M70.1606 56.5862C70.236 56.5862 70.3099 56.5766 70.3822 56.5565C70.8455 56.4288 71.1659 55.9037 71.2855 55.0782C71.4036 54.264 71.312 53.2498 71.0294 52.2236C70.7467 51.1974 70.3051 50.2796 69.7872 49.6404C69.262 48.9924 68.7168 48.7057 68.2543 48.8334C67.3108 49.0936 67.0201 51.0376 67.6071 53.1663C67.8897 54.1925 68.3314 55.1103 68.8493 55.7495C69.2933 56.2971 69.7502 56.5862 70.1606 56.5862ZM68.4759 48.884C68.8613 48.884 69.2965 49.1634 69.7245 49.691C70.236 50.3221 70.6721 51.2287 70.9515 52.2445C71.2309 53.2602 71.3217 54.2624 71.2052 55.0662C71.0904 55.8587 70.7909 56.3606 70.3605 56.4786C69.9301 56.5974 69.4154 56.3204 68.9111 55.6981C68.3996 55.067 67.9636 54.1604 67.6834 53.1446C67.1084 51.0577 67.3734 49.1586 68.2744 48.9105C68.3394 48.8928 68.4068 48.884 68.4751 48.884H68.4759Z" fill="#2D0000"/>
<path d="M54.4607 63.6155L42.9813 58.3359C42.9813 58.3359 44.5037 69.3962 49.4806 68.9144C53.1936 68.5555 54.4607 63.6155 54.4607 63.6155Z" fill="#808080"/>
<path d="M49.1698 68.9698C49.2741 68.9698 49.3793 68.965 49.4853 68.9546C53.1839 68.5972 54.4879 63.675 54.5008 63.6252L54.5088 63.5931L54.4783 63.5794L42.9322 58.2693L42.9418 58.3416C42.9459 58.3689 43.3345 61.1416 44.327 63.8195C44.9108 65.3949 45.5869 66.6299 46.3352 67.4907C47.1896 68.4736 48.1411 68.9698 49.169 68.9698H49.1698ZM54.4132 63.6372C54.2944 64.0644 52.963 68.537 49.4773 68.8743C48.0721 69.0108 46.0518 68.2391 44.4033 63.7922C43.5031 61.364 43.1008 58.8579 43.0326 58.4026L54.414 63.6372H54.4132Z" fill="#2D0000"/>
<path d="M47.344 65.5108C46.773 63.4395 47.1451 61.5301 48.175 61.2463C49.2049 60.9624 50.5027 62.4114 51.0736 64.4828C51.6446 66.5542 51.2725 68.4635 50.2426 68.7474C49.2127 69.0313 47.9149 67.5822 47.344 65.5108Z" fill="#808080"/>
<path d="M47.1608 65.558C47.5326 66.7423 48.4118 68.3636 49.6548 68.7699C50.302 68.9682 50.8569 68.5466 51.1131 67.9701C51.9714 66.055 51.1797 62.5267 49.4726 61.2427C48.5548 60.5522 47.4972 60.834 47.0556 61.8988C46.5859 63.0856 46.8195 64.396 47.1608 65.5571V65.558ZM47.5342 65.4552C47.3182 64.5293 47.2724 63.5738 47.5029 62.6696C47.7189 61.8313 48.2271 61.1897 49.0976 61.7791C50.4875 62.7788 51.3034 65.1091 51.2335 66.7986C51.1901 67.4442 51.0536 68.1925 50.4908 68.5868C50.0772 68.867 49.5392 68.7201 49.1666 68.4366C48.2472 67.7196 47.8136 66.5472 47.5342 65.4552Z" fill="#2D0000"/>
<path d="M48.3322 65.5215C47.9234 64.0384 48.1181 62.6911 48.7671 62.5122C49.4161 62.3333 50.2736 63.3906 50.6824 64.8737C51.0912 66.3568 50.8965 67.7041 50.2475 67.883C49.5985 68.0619 48.741 67.0046 48.3322 65.5215Z" fill="#2D0000"/>
<path d="M50.1029 67.9388C50.1567 67.9388 50.2097 67.9316 50.2619 67.9179C50.5919 67.8272 50.8208 67.4546 50.9051 66.8692C50.9878 66.2951 50.9243 65.5812 50.7252 64.8594C50.5261 64.1367 50.2153 63.4911 49.85 63.0406C49.4774 62.5813 49.0903 62.379 48.7603 62.4697C48.4303 62.5604 48.2014 62.933 48.1171 63.5184C48.0344 64.0925 48.0979 64.8064 48.297 65.5282C48.4961 66.2509 48.8069 66.8965 49.1722 67.347C49.4862 67.734 49.8106 67.9396 50.1029 67.9396V67.9388ZM48.9193 62.5283C49.1859 62.5283 49.4886 62.7234 49.7873 63.0912C50.1455 63.5328 50.4514 64.1688 50.6473 64.881C50.8433 65.5933 50.9067 66.2951 50.8256 66.8588C50.7461 67.4104 50.5381 67.7589 50.241 67.8416C49.9431 67.9243 49.5866 67.73 49.2349 67.2972C48.8768 66.8556 48.5708 66.2196 48.3749 65.5074C48.179 64.7951 48.1155 64.0933 48.1966 63.5296C48.2761 62.978 48.4841 62.6295 48.7812 62.5468C48.8262 62.5347 48.8719 62.5283 48.9193 62.5283Z" fill="#2D0000"/>
<path d="M48.9763 65.3581C48.7631 64.5847 48.8644 63.8821 49.2026 63.7889C49.5408 63.6957 49.9877 64.2471 50.2009 65.0205C50.4141 65.7939 50.3128 66.4965 49.9746 66.5897C49.6364 66.6829 49.1895 66.1315 48.9763 65.3581Z" fill="#808080"/>
<path d="M49.9005 66.6366C49.9302 66.6366 49.9599 66.6326 49.988 66.6246C50.1678 66.5748 50.2923 66.3748 50.3373 66.0625C50.3806 65.7606 50.3469 65.3856 50.2425 65.0065C50.1381 64.6275 49.9751 64.2879 49.7824 64.051C49.5833 63.8053 49.3745 63.6977 49.1946 63.7467C49.0148 63.7965 48.8903 63.9964 48.8453 64.3088C48.802 64.6107 48.8357 64.9857 48.9401 65.3647C49.0445 65.7437 49.2075 66.0833 49.4002 66.3202C49.568 66.5266 49.7423 66.6358 49.9005 66.6358V66.6366ZM49.2814 63.8157C49.4146 63.8157 49.5704 63.9161 49.7206 64.1016C49.9061 64.3296 50.0635 64.6589 50.1654 65.0274C50.2674 65.396 50.2995 65.7597 50.2578 66.0504C50.2176 66.3258 50.1116 66.5065 49.9671 66.5467C49.8226 66.5868 49.6379 66.4856 49.4628 66.2696C49.2773 66.0416 49.12 65.7124 49.018 65.3438C48.916 64.9752 48.8839 64.6115 48.9256 64.3208C48.9658 64.0454 49.0718 63.8647 49.2163 63.8246C49.2372 63.8189 49.2589 63.8157 49.2814 63.8157Z" fill="#2D0000"/>
<path d="M98.415 74.4597C98.415 74.4597 112.291 80.8081 116.928 89.5469C122.114 99.3208 111.584 101.552 106.702 91.9053C106.675 91.8531 98.301 85.4855 98.2569 85.4461" fill="#808080"/>
<path d="M98.4134 74.4648C104.995 78.246 116.084 85.4994 117.512 93.3847C118.127 97.4766 114.634 98.2893 111.595 96.5267C109.788 95.4973 108.354 93.8126 107.317 92.0124C107.28 91.9489 107.194 91.794 107.159 91.7329C107.105 91.6342 107.017 91.549 106.932 91.4752C106.54 91.1789 105.925 90.7461 105.521 90.4562C103.143 88.7691 100.687 87.0451 98.2536 85.444C98.9988 86.1185 100.155 87.0796 100.937 87.7461C102.638 89.1875 104.472 90.685 106.194 92.1063C106.206 92.1184 106.287 92.1818 106.299 92.193C106.301 92.1946 106.308 92.2011 106.306 92.1995L106.3 92.1946C106.281 92.1778 106.271 92.1505 106.271 92.124C106.287 92.1601 106.328 92.2372 106.345 92.2749C107.377 94.4141 108.888 96.3806 110.932 97.6437C112.021 98.3174 113.289 98.7831 114.589 98.8096C116.403 98.8698 118.108 97.9014 118.751 96.1413C120.222 91.9642 116.298 86.585 113.404 83.8509C110.4 80.9569 106.898 78.6331 103.235 76.6834C102.19 76.1326 101.127 75.6171 100.051 75.1345C99.5103 74.8984 98.9691 74.6648 98.4174 74.456C98.4118 74.4536 98.4078 74.4624 98.4134 74.4656V74.4648Z" fill="#2D0000"/>
<path d="M79.2186 85.5522C75.8613 82.195 75.8613 76.7518 79.2186 73.3946C82.5758 70.0374 88.0189 70.0374 91.3762 73.3946C94.7334 76.7518 94.7334 82.195 91.3762 85.5522C88.0189 88.9094 82.5758 88.9094 79.2186 85.5522Z" fill="#808080"/>
<path d="M83.3511 87.5845C78.4473 86.3053 75.783 80.7013 78.1044 76.1581C78.8271 74.7898 79.8549 73.5677 81.1606 72.7261C83.8184 70.9788 87.4824 71.0383 90.101 72.8602C92.8447 74.683 94.2451 78.2265 93.5289 81.4489C93.1346 83.3945 92.0899 85.1354 90.4671 86.3005C88.45 87.7868 85.7496 88.2518 83.3519 87.5845H83.3511ZM83.2323 88.0815C85.7681 88.6308 88.4886 87.9531 90.5073 86.3535C92.0522 85.1226 93.2591 83.4259 93.785 81.5099C94.735 78.1286 93.4052 74.2943 90.5988 72.1745C86.6473 69.0902 80.6964 69.9205 77.7527 73.9932C74.116 79.2969 76.8959 86.7229 83.2323 88.0815Z" fill="#2D0000"/>
<path d="M79.6311 83.1583C78.6757 77.2719 82.1836 71.805 87.4663 70.9475C92.749 70.09 97.806 74.1666 98.7615 80.053C99.717 85.9394 96.2091 91.4063 90.9264 92.2638C85.6437 93.1213 80.5866 89.0446 79.6311 83.1583Z" fill="#808080"/>
<path d="M83.5334 73.3744C83.7663 70.8353 88.2871 66.5956 92.8343 68.7042C97.437 70.8385 97.4748 67.1416 98.4568 63.6157C99.4389 60.0898 106.251 58.9849 106.558 65.6633C106.801 70.9445 103.344 75.7705 97.7446 77.9738" fill="#808080"/>
<path d="M83.5358 73.3741C83.6988 72.3495 84.338 71.4654 85.0463 70.7379C86.4515 69.3206 88.4469 68.3595 90.4479 68.4984C91.0526 68.5385 91.6548 68.6831 92.2113 68.9159C92.5589 69.0661 92.9131 69.258 93.2696 69.4065C95.2385 70.2657 96.9456 70.0393 97.9237 67.9419C98.5556 66.5905 98.7901 65.1724 99.2582 63.7889C99.565 62.9337 100.333 62.2889 101.19 61.9942C101.951 61.7148 102.791 61.7325 103.534 61.9942C103.761 62.0601 103.984 62.1564 104.188 62.2769C105.235 62.9723 105.672 64.3157 105.802 65.5241C105.921 66.4941 105.879 67.4802 105.726 68.4454C105.35 70.6769 104.273 72.7445 102.744 74.4139C101.378 75.926 99.618 77.124 97.7462 77.9776C101.218 76.8068 104.404 74.3441 106.044 70.9916C106.893 69.2741 107.338 67.3437 107.285 65.4238C107.243 63.3994 106.526 61.4193 104.692 60.3505C102.891 59.2978 100.399 59.9049 98.937 61.2852C98.3645 61.8272 97.9044 62.5403 97.6972 63.3191C97.4684 64.2072 97.3182 65.1355 97.1199 66.0156C96.8838 66.955 96.6172 68.3819 95.5838 68.7112C94.9422 68.8926 94.2733 68.7256 93.6125 68.512C93.5273 68.4847 93.3483 68.4213 93.2648 68.386C93.0512 68.3033 92.73 68.1756 92.5132 68.1025C89.7445 67.147 86.6747 68.4133 84.868 70.5741C84.4826 71.0254 84.1509 71.5216 83.8972 72.0564C83.7125 72.4659 83.5471 72.9389 83.5375 73.3741H83.5358Z" fill="#2D0000"/>
<path d="M98.5275 81.7773C98.5275 81.7773 111.525 88.1667 115.606 95.6143C119.441 102.613 113.716 106.392 110.355 102.298C108.617 100.182 104.397 91.5681 96.2269 89.6136" fill="#808080"/>
<path d="M98.525 81.7822C104.049 85.1499 113.399 91.3096 115.649 97.4645C116.2 98.9452 116.46 100.865 115.489 102.219C115.333 102.437 115.166 102.605 114.96 102.774C114.916 102.803 114.797 102.887 114.752 102.918C114.27 103.204 113.705 103.336 113.134 103.246C112.504 103.162 111.86 102.826 111.375 102.383C111.322 102.337 111.215 102.233 111.165 102.19C111.015 102.024 110.853 101.858 110.716 101.679C109.69 100.297 108.742 98.8014 107.658 97.4364C105.481 94.6572 102.841 92.1005 99.5826 90.6479C98.521 90.1629 97.376 89.8136 96.2277 89.6081C96.2205 89.6065 96.2181 89.6177 96.2253 89.6193C96.4839 89.7101 96.8026 89.8088 97.0508 89.902C99.2084 90.7017 101.167 91.9953 102.844 93.5612C104.74 95.3141 106.305 97.3866 107.722 99.5377C108.039 100.02 108.349 100.506 108.664 100.996C109.328 102.025 109.981 103.137 111.038 103.862C112.964 105.238 115.498 104.908 116.82 102.868C117.954 101.101 117.743 98.8295 117.024 96.9546C114.557 90.3364 104.801 84.4096 98.525 81.7822Z" fill="#2D0000"/>
<path d="M98.2062 88.8161C98.2062 88.8161 113.319 97.6304 110.709 104.483C109.434 107.832 105.133 105.19 101.49 102.146C98.2986 99.4789 95.1067 97.4803 89.1679 95.6342C85.8154 94.592 82.8042 92.615 80.6739 89.823C78.5147 86.9933 76.9369 83.302 79.2615 79.8564" fill="#808080"/>
<path d="M98.2047 88.8203C102.113 91.471 106.687 95.0997 109.09 99.1868C109.874 100.57 110.364 102.068 110.061 103.645C109.921 104.218 109.695 104.883 109.129 105.098C108.154 105.436 106.767 104.752 105.846 104.247C104.667 103.585 103.556 102.764 102.493 101.912C101.543 101.13 100.53 100.314 99.5232 99.6132C99.1105 99.3282 98.587 98.9837 98.1614 98.7179C96.162 97.4861 94.0132 96.5081 91.809 95.7244C90.358 95.1808 88.785 94.8098 87.3733 94.1666C85.8356 93.4808 84.3814 92.5711 83.132 91.4397C82.6397 90.9924 82.1684 90.4873 81.7027 90.0112C80.1176 88.3088 78.6778 86.1938 78.396 83.8378C78.229 82.4029 78.5743 81.0924 79.2576 79.8542C76.3733 83.5231 78.4064 88.1298 81.0073 91.3256C82.6036 93.0994 84.6022 94.5119 86.7679 95.506C88.206 96.1837 89.8064 96.5828 91.2871 97.1513C93.2238 97.8651 95.1213 98.7299 96.879 99.7987C97.4387 100.134 98.0642 100.552 98.5982 100.926C99.5658 101.612 100.549 102.419 101.46 103.182C102.588 104.101 103.747 104.972 105.022 105.702C106.021 106.262 107.136 106.797 108.346 106.883C109.319 106.958 110.306 106.613 110.945 105.805C111.447 105.154 111.664 104.47 111.805 103.706C111.972 102.796 111.822 101.858 111.534 100.998C109.842 96.0014 102.693 91.2678 98.2031 88.8211L98.2047 88.8203Z" fill="#2D0000"/>
<path d="M99.4846 79.5999C99.3802 79.9708 99.5882 86.2317 93.8405 88.7819L99.4846 79.5999Z" fill="#808080"/>
<path d="M99.4734 79.5966C99.316 80.0431 99.2204 80.5305 99.0839 80.9802C98.7121 82.3035 98.24 83.5979 97.5454 84.7807C97.0957 85.5548 96.5577 86.2678 95.9378 86.9263C95.3187 87.5895 94.6025 88.1685 93.8348 88.7715C93.8244 88.7779 93.8324 88.7956 93.8445 88.7932C94.4451 88.6816 95.0345 88.4712 95.5773 88.1837C98.1549 86.8419 99.5938 83.8878 99.5986 81.0525C99.6083 80.5675 99.5529 80.0825 99.495 79.6031C99.495 79.5958 99.4902 79.5886 99.4822 79.5894C99.4774 79.5894 99.4742 79.5926 99.4726 79.5966H99.4734Z" fill="#2D0000"/>
<path d="M94.6113 79.3933C94.6113 79.3933 90.9979 83.0878 86.4008 80.7255L94.6113 79.3933Z" fill="#808080"/>
<path d="M94.6018 79.3838C92.7742 80.5201 90.717 81.3303 88.5489 81.1311C87.8391 81.0846 87.114 80.879 86.3905 80.7232C86.9606 81.2154 87.7002 81.5382 88.4518 81.7293C90.3548 82.1862 92.4313 81.5543 93.8638 80.2567C94.1457 79.9997 94.4099 79.7227 94.6211 79.4039C94.6291 79.3919 94.6138 79.3766 94.6018 79.3854V79.3838Z" fill="#2D0000"/>
<path d="M80.5239 35.1516C77.7785 31.7655 74.0551 29.2369 69.9318 27.8798C62.3131 25.2942 53.2257 27.1114 47.47 32.6865C54.313 27.9738 63.3393 27.2664 70.6882 31.0966C70.8471 31.1721 71.2157 31.3848 71.3747 31.4708C71.7947 31.698 72.3086 32.0152 72.7093 32.2786C72.9534 32.4504 73.3268 32.6913 73.562 32.8712C73.7957 33.0518 74.1619 33.3104 74.3867 33.4991C74.6035 33.6846 74.9688 33.9729 75.1784 34.1664C76.2175 35.077 77.1626 36.0895 78.0234 37.1671C79.4206 38.7795 81.8062 36.8716 80.5239 35.1516Z" fill="#808080"/>
<path d="M19.2812 23.9878C16.8691 27.4952 13.5994 30.4462 9.38852 31.4868C8.79431 31.6506 8.18726 31.7518 7.58101 31.8642L7.58261 31.9445C8.36392 32.0313 9.16288 32.0272 9.94338 31.9188C12.969 31.5182 15.6783 29.701 17.5195 27.3113C18.0977 26.5589 18.6043 25.756 19.0018 24.8968C19.1335 24.6109 19.2572 24.3226 19.3535 24.0215L19.2804 23.9878H19.2812Z" fill="#808080"/>
<path d="M26.7974 84.2805C22.4115 83.6242 19.2256 80.6218 19.6816 77.5745C20.1376 74.5272 24.0627 72.5888 28.4486 73.2451C32.8345 73.9013 36.0204 76.9037 35.5644 79.951C35.1084 82.9984 31.1833 84.9367 26.7974 84.2805Z" fill="#808080"/>
<path d="M35.9399 80.0051C36.2691 77.03 33.5808 74.8427 31.061 73.904C29.378 73.26 27.5552 72.9621 25.7557 73.0866C23.505 73.2536 21.047 74.112 19.8289 76.1548C19.3319 76.9971 19.1375 78.0201 19.2861 78.9925C19.6755 81.4521 21.7753 83.2499 23.9482 84.1958C26.5756 85.3272 29.6839 85.5015 32.3273 84.3243C34.0858 83.5486 35.7143 82.0045 35.9391 80.0051H35.9399ZM35.1899 79.8927C34.7828 82.0045 32.622 83.1375 30.6611 83.49C27.1995 84.1436 22.5414 83.1174 20.5957 79.9497C19.1159 77.4251 20.7306 74.9519 23.203 73.908C24.8347 73.195 26.684 73.036 28.4433 73.2777C30.2066 73.529 31.929 74.23 33.2724 75.4112C34.5411 76.5177 35.5143 78.2008 35.1891 79.8927H35.1899Z" fill="#2D0000"/>
<path d="M25.7355 80.7456C22.7126 78.8699 22.1792 74.2597 24.5441 70.4485C26.909 66.6373 31.2767 65.0683 34.2995 66.944C37.3224 68.8198 37.8558 73.4299 35.4909 77.2411C33.1261 81.0523 28.7584 82.6213 25.7355 80.7456Z" fill="#808080"/>
<path d="M35.5505 65.9859C35.5505 65.9859 38.063 63.6958 40.8718 66.0188C42.7364 67.5606 43.186 71.1732 38.3722 74.9191C35.0735 77.4854 35.6846 80.6524 31.1092 80.9238" fill="#808080"/>
<path d="M35.5834 66.022C36.5663 65.6839 37.5523 65.484 38.5263 65.6719C39.8183 65.9248 41.1192 66.8282 41.3946 68.1892C41.8964 70.6664 39.7894 72.9316 37.9795 74.3786C37.0778 75.0997 36.3205 76.0416 35.7344 77.0196C34.4062 79.3218 33.8546 80.3793 31.106 80.8747L31.1116 80.9727C31.6649 81.008 32.2286 80.9847 32.7906 80.8683C34.6849 80.5053 35.6027 79.0744 36.649 77.6379C37.2825 76.7771 37.9731 76.0335 38.8002 75.4313C40.1572 74.3834 41.45 73.1067 42.2353 71.5304C43.2374 69.5864 43.178 67.1148 41.4564 65.5763C40.4487 64.6681 39.07 64.0812 37.7041 64.4104C36.8168 64.6184 35.9785 65.1556 35.5176 65.9505L35.5834 66.0228V66.022Z" fill="#2D0000"/>
<path d="M31.6366 63.9446C31.6366 63.9446 36.3758 59.525 38.8458 61.6256C40.8147 63.2998 40.8147 65.5634 37.92 67.9049C35.7423 69.6667 34.9666 73.1315 32.5023 73.8534" fill="#808080"/>
<path d="M31.6665 63.977C33.2556 63.093 35.0783 61.9567 36.8674 61.7632C37.7707 61.6894 38.2863 61.9881 38.8588 62.6465C40.3804 64.3569 38.96 66.1965 37.5451 67.4042C37.1356 67.7527 36.7742 68.1702 36.4563 68.5974C35.3987 70.0107 34.8342 71.6937 33.6595 72.9737C33.3311 73.3181 32.944 73.612 32.4895 73.8104L32.5144 73.8955C33.5422 73.7373 34.4079 72.9985 35.0639 72.2293C36.0564 71.0802 36.7477 69.8292 37.8173 68.807C38.1746 68.4689 38.5785 68.2023 38.9407 67.8675C39.3374 67.5142 39.7115 67.1199 40.0384 66.6686C41.2043 65.106 41.2637 63.207 39.95 61.7078C39.6529 61.3682 39.3398 61.059 38.9632 60.8189C37.2777 59.7775 35.1948 60.6969 33.7767 61.7528C32.952 62.3695 32.2109 63.0801 31.6054 63.9112L31.6657 63.9762L31.6665 63.977Z" fill="#2D0000"/>
<path d="M26.0841 81.2409C26.0841 81.2409 20.7266 80.4909 18.6195 76.2905C16.5133 72.0901 19.718 67.3758 15.0077 65.3347C5.49161 61.2105 18.842 46.4654 26.129 65.162" fill="#808080"/>
<path d="M26.0905 81.192C23.2383 80.5055 20.3195 78.8834 19.0251 76.1493C18.3851 74.8139 18.3016 73.3228 18.3361 71.8573C18.3923 69.6652 18.6155 67.2097 16.739 65.627C16.2901 65.2384 15.785 64.9501 15.2743 64.7205C14.4416 64.3487 13.6611 63.8235 13.1191 63.1032C12.0062 61.6699 12.3105 59.6577 13.4612 58.3239C14.6079 56.9299 16.5318 56.2924 18.2823 56.7452C21.1417 57.4864 23.1058 60.072 24.6082 62.4962C25.1333 63.3634 25.6167 64.2644 26.0825 65.1806L26.1748 65.1444C25.8938 64.1527 25.5493 63.1763 25.1301 62.2248C24.2806 60.3065 23.1323 58.4476 21.5207 57.0608C19.2973 55.1096 16.1889 54.5162 13.6411 56.2394C11.1285 57.8983 10.0429 61.4435 12.0086 63.9496C12.7144 64.8682 13.7013 65.509 14.7412 65.9498C15.5642 66.2967 16.2965 66.8066 16.7012 67.6015C17.118 68.4182 17.1903 69.3922 17.22 70.3293C17.2489 71.3298 17.228 72.3777 17.346 73.44C17.6688 76.8864 19.9244 79.3042 23.0713 80.5304C24.0389 80.9078 25.0458 81.1784 26.0776 81.2916L26.0913 81.1928L26.0905 81.192Z" fill="#2D0000"/>
<path d="M22.9485 67.9243C22.9485 67.9243 31.9627 37.5957 46.7802 43.4567C53.9484 46.292 52.0887 52.8227 48.6896 54.6824C43.671 57.4286 29.8846 63.834 29.068 71.5747" fill="#808080"/>
<path d="M22.9661 67.9301C25.9163 59.9677 33.4611 42.7181 43.5939 43.444C45.9643 43.6199 48.8719 44.8436 50.2097 46.8695C50.2803 46.9699 50.3526 47.112 50.4168 47.218C50.4618 47.2879 50.555 47.5023 50.5943 47.5802C50.6987 47.8146 50.787 48.0917 50.8553 48.3406C50.8721 48.4401 50.9211 48.6393 50.934 48.7356C50.9436 48.8023 50.9573 48.9356 50.9669 49.003C51.1323 50.6877 50.4 52.4165 49.1522 53.5447C48.9498 53.7125 48.729 53.8948 48.5025 54.0241C48.3492 54.122 47.8891 54.371 47.7212 54.4641C41.7005 57.7411 29.6028 64.014 29.0503 71.574L29.0873 71.5781C29.2197 70.7646 29.4735 69.9793 29.8388 69.2502C30.1954 68.5179 30.6434 67.8346 31.1445 67.193C33.1817 64.6347 35.8741 62.6915 38.6162 60.9442C41.7406 58.972 45.0465 57.3035 48.3355 55.6156C48.5298 55.5104 48.9956 55.2767 49.1803 55.1611C49.4774 54.9965 49.7697 54.7692 50.0322 54.554C52.3368 52.5578 53.1622 49.0777 51.5916 46.3877C50.9251 45.2009 49.8371 44.2502 48.6872 43.5813C46.3979 42.2572 43.6557 41.655 41.0453 42.2002C33.1447 43.8816 28.0233 53.9598 25.2675 60.8534C24.6564 62.3928 24.1104 63.9562 23.6125 65.5348C23.3708 66.3258 23.1324 67.1175 22.9308 67.9189L22.9669 67.9293L22.9661 67.9301Z" fill="#2D0000"/>
<path d="M136.196 94.3328C131.052 99.9689 112.867 98.4352 95.5789 90.9056C78.2907 83.3769 68.447 72.7036 73.5909 67.0675C78.7348 61.4314 96.9199 62.9651 114.208 70.4946C131.496 78.0234 141.34 88.6966 136.196 94.3328ZM104.894 80.7005C104.624 80.996 105.14 81.5557 106.047 81.9508C106.953 82.3458 107.907 82.4261 108.177 82.1306C108.447 81.8351 107.93 81.2755 107.024 80.8804C106.117 80.4853 105.163 80.405 104.894 80.7005Z" fill="#2D0000"/>
<path d="M135.892 94.055C132.83 97.3055 126.523 97.4268 122.315 97.2341C108.507 96.3251 92.9185 90.4384 81.786 82.2456C78.5372 79.7355 74.8041 76.4609 73.39 72.5408C72.4594 69.8243 73.4029 67.6675 75.9226 66.3016C80.5205 63.9143 87.2118 64.3488 92.2609 64.9783C104.6 66.7336 117.98 71.7025 128.124 78.9919C131.47 81.5077 135.247 84.7485 136.733 88.7465C137.394 90.603 137.27 92.5503 135.891 94.055H135.892ZM136.501 94.6115C140.391 90.2642 135.864 84.5084 132.556 81.331C121.738 71.1604 102.307 63.708 87.533 62.9082C83.4088 62.75 78.8616 62.8881 75.1325 64.8683C73.0576 65.9836 71.4605 67.9148 71.4179 70.3727C71.3754 75.5849 77.0211 80.565 80.8883 83.4469C92.7547 92.1223 112.464 99.064 127.224 98.041C130.397 97.7488 134.217 97.0196 136.501 94.6107V94.6115Z" fill="#808080"/>
<path d="M104.589 80.4221C103.959 81.2893 105.325 82.2232 105.976 82.5885C106.637 82.941 107.412 83.2285 108.199 83.0302C109.049 82.7925 109.324 81.8723 108.81 81.1857C108.138 80.3137 106.986 80.0358 105.953 80.0085C105.478 80.0206 104.959 80.0302 104.59 80.4213L104.589 80.4221ZM105.199 80.9785C105.189 81.0026 105.209 80.997 105.245 80.9938C105.427 80.9874 105.614 81.0307 105.805 81.0894C106.389 81.2925 107.101 81.7165 107.46 82.1252C107.384 81.9823 107.445 81.6932 107.572 81.5792C107.593 81.5511 107.631 81.5254 107.657 81.5077C107.674 81.4973 107.702 81.4828 107.715 81.4852C107.592 81.5358 107.462 81.5318 107.293 81.5366C106.612 81.5173 105.797 81.3816 105.273 80.9304C105.239 80.8974 105.215 80.8653 105.216 80.8717C105.224 80.8902 105.211 80.9617 105.197 80.9785H105.199Z" fill="#808080"/>
<path d="M119.322 86.5164C117.079 88.9744 109.397 88.4139 102.164 85.2638C94.9309 82.1137 90.8863 77.5672 93.1299 75.1093C95.3734 72.6514 103.056 73.2118 110.288 76.3619C117.521 79.512 121.566 84.0585 119.322 86.5164ZM104.523 80.0709C104.232 80.3905 104.758 80.9815 105.698 81.391C106.638 81.8005 107.637 81.8736 107.93 81.554C108.221 81.2344 107.695 80.6434 106.755 80.2339C105.815 79.8244 104.816 79.7513 104.523 80.0709Z" fill="#808080"/>
<path d="M114.059 88.4492C116.68 88.4492 118.628 87.8735 119.619 86.787C120.25 86.0965 120.474 85.222 120.269 84.2576C119.7 81.5877 115.844 78.3437 110.449 75.9934C106.911 74.4524 103.153 73.4712 99.8676 73.2319C96.5015 72.9854 94.0034 73.5563 92.8335 74.8387C92.2031 75.5292 91.9783 76.4037 92.1838 77.3681C92.7532 80.038 96.6083 83.282 102.004 85.6323C105.542 87.1733 109.3 88.1545 112.585 88.3938C113.097 88.4307 113.589 88.45 114.059 88.45V88.4492ZM98.4037 73.9795C98.8518 73.9795 99.3207 73.9971 99.809 74.0325C103.006 74.2661 106.67 75.2233 110.128 76.7297C115.214 78.9451 118.974 82.0374 119.484 84.4247C119.635 85.1345 119.481 85.7464 119.027 86.245C118.041 87.325 115.715 87.8156 112.645 87.5916C109.448 87.3579 105.783 86.4008 102.325 84.8944C97.2394 82.679 93.4799 79.5867 92.9708 77.1994C92.819 76.4896 92.9732 75.8777 93.4277 75.3791C94.2563 74.4709 96.0341 73.9787 98.4045 73.9787L98.4037 73.9795ZM107.204 82.1562C107.692 82.1562 108.045 82.0229 108.226 81.8254C108.385 81.6512 108.444 81.4247 108.394 81.1878C108.294 80.7197 107.741 80.2259 106.915 79.8661C105.564 79.2776 104.574 79.4197 104.226 79.8003C104.067 79.9745 104.008 80.201 104.058 80.4379C104.158 80.906 104.711 81.3998 105.537 81.7596C106.186 82.0422 106.752 82.1562 107.204 82.1562ZM107.59 81.3091C107.382 81.3982 106.683 81.3822 105.859 81.0232C105.223 80.7462 104.937 80.4483 104.864 80.3166C105.076 80.2267 105.773 80.2435 106.595 80.6017C107.232 80.8795 107.518 81.1774 107.591 81.3091H107.59Z" fill="#2D0000"/>
<path d="M131.581 88.9346C132.471 87.592 132.42 85.9667 131.8 84.5238C130.247 80.9473 126.005 78.1867 122.578 76.5919C121.856 76.2555 121.118 75.9528 120.368 75.6846C121.71 76.5446 123.058 77.3676 124.363 78.2445C127.546 80.4254 133.382 84.4571 131.581 88.9354V88.9346Z" fill="#808080"/>
<path d="M126.967 86.3655C127.555 84.5203 126.662 82.5971 125.426 81.2353C123.67 79.3049 121.31 78.0129 118.87 77.1505C118.439 77.0044 118.005 76.8711 117.563 76.7603C118.599 77.393 119.645 77.972 120.656 78.5975C123.421 80.3271 127.116 82.6935 126.966 86.3655H126.967Z" fill="#808080"/>
<path d="M121.405 84.1516C122.35 83.2868 121.477 81.8318 120.784 81.0883C119.66 79.8782 118.158 79.0326 116.562 78.6303C116.386 78.5846 116.204 78.5541 116.023 78.5251C117.038 79.2791 118.061 79.9023 119.063 80.641C119.986 81.3516 122.028 82.8243 121.405 84.1508V84.1516Z" fill="#808080"/>
<path d="M77.8443 69.927C77.0421 71.5089 77.6387 73.387 78.4787 74.826C80.2388 77.7464 83.0548 79.8992 85.9962 81.5285C87.4753 82.329 89.0258 83.0003 90.6366 83.4821C89.1977 82.6832 87.7097 81.8457 86.3302 80.9624C83.1552 78.9421 76.6695 74.2406 77.8451 69.927H77.8443Z" fill="#808080"/>
<path d="M85.5737 73.7124C84.5555 74.2416 84.8759 75.6058 85.3127 76.4345C86.6224 78.9262 89.3325 80.9505 91.7784 82.2473C92.925 82.8439 94.1263 83.3393 95.3773 83.667C92.9443 82.2336 90.4438 80.7256 88.2958 78.8981C87.2375 77.9827 84.0208 75.1184 85.5729 73.7124H85.5737Z" fill="#808080"/>
<path d="M133.598 92.5903C132.143 93.5306 130.432 94.01 128.749 94.3577C126.42 94.817 124.021 94.9182 121.651 94.8234C118.836 94.7078 116.044 94.3191 113.28 93.7538C108.167 92.7565 103.09 91.3971 98.2376 89.4916C97.2499 89.1062 96.1956 88.6565 95.2361 88.2052C94.6451 87.9274 94.0565 87.6391 93.4872 87.3195C93.4679 87.3075 93.4422 87.3139 93.431 87.334C93.4205 87.3525 93.4261 87.375 93.443 87.387C94.1657 87.8873 94.9277 88.3233 95.6994 88.7408C95.9925 88.9014 96.5698 89.2009 96.8693 89.3447C99.2084 90.5074 101.708 91.487 104.191 92.3012C107.506 93.4013 110.969 94.2324 114.401 94.8764C116.562 95.2643 118.771 95.534 120.968 95.6023C123.613 95.6858 126.289 95.4963 128.858 94.8395C130.138 94.5038 131.4 94.0517 132.555 93.4005C132.875 93.2255 133.929 92.5486 133.596 92.5919L133.598 92.5903Z" fill="#808080"/>
<path d="M143.151 89.9372C137.866 96.0727 119.317 94.7615 101.721 87.0095C84.1253 79.2575 74.1458 67.9997 79.4318 61.8641C84.7171 55.7285 103.266 57.0398 120.862 64.7918C138.457 72.5438 148.437 83.8016 143.151 89.9372ZM111.291 75.901C111.014 76.223 111.537 76.8132 112.46 77.2195C113.383 77.6258 114.356 77.6949 114.633 77.3729C114.91 77.0509 114.386 76.4607 113.464 76.0544C112.541 75.6481 111.568 75.579 111.291 75.901Z" fill="#2D0000"/>
<path d="M142.838 89.6674C139.709 93.1781 133.408 93.4591 128.984 93.333C114.914 92.6682 98.5363 86.4266 87.4078 77.8146C84.5508 75.5253 81.8022 72.9365 80.0179 69.727C77.5199 65.1387 79.0359 61.6867 83.9253 59.9868C88.5914 58.4483 93.6959 58.6748 98.5355 59.2256C112.096 60.9584 129.144 67.5027 139.056 77.0839C142.122 80.1312 146.267 85.5289 142.838 89.6666V89.6674ZM143.463 90.2062C146.716 86.4716 144.2 81.518 141.492 78.2747C132.207 67.3036 112.821 59.4279 98.7362 57.6317C92.4521 56.7966 79.7955 56.3541 77.4492 63.8379C76.2728 68.2399 79.6992 72.6795 82.614 75.6209C93.6734 86.3391 113.652 93.7048 128.956 94.2243C133.639 94.3111 140.117 93.8831 143.463 90.2062Z" fill="#808080"/>
<path d="M110.978 75.6315C110.366 76.522 111.708 77.4815 112.377 77.8533C113.05 78.217 113.887 78.5109 114.679 78.2757C115.092 78.1448 115.445 77.7987 115.512 77.3603C115.596 76.8873 115.351 76.4184 115.017 76.106C114.28 75.4275 113.325 75.2003 112.367 75.1802C111.883 75.193 111.339 75.2203 110.978 75.6315ZM111.603 76.1703C111.601 76.1887 111.621 76.1823 111.659 76.1783C112.148 76.1606 112.635 76.4007 113.056 76.6456C113.356 76.8263 113.737 77.0913 113.909 77.3225C113.872 77.2326 113.88 77.1314 113.904 77.0351C113.926 76.9612 113.959 76.8929 114.012 76.8399C114.092 76.7532 114.137 76.7476 114.142 76.7492C113.528 76.9467 112.034 76.6424 111.618 76.1028C111.616 76.1012 111.612 76.0972 111.613 76.0972C111.613 76.0972 111.61 76.0972 111.613 76.1052C111.614 76.1124 111.61 76.1148 111.613 76.1253C111.614 76.1341 111.608 76.143 111.608 76.1502C111.608 76.1582 111.606 76.1646 111.602 76.1694L111.603 76.1703Z" fill="#808080"/>
<path d="M125.98 81.8696C123.674 84.5451 115.838 84.085 108.476 80.8418C101.115 77.5986 97.0155 72.7999 99.3208 70.1244C101.626 67.4489 109.462 67.909 116.824 71.1522C124.186 74.3955 128.285 79.1941 125.98 81.8696ZM110.917 75.2338C110.617 75.5815 111.15 76.2054 112.108 76.6277C113.065 77.0493 114.084 77.1095 114.383 76.761C114.683 76.4134 114.149 75.7894 113.192 75.3671C112.235 74.9455 111.216 74.8853 110.917 75.2338Z" fill="#808080"/>
<path d="M120.285 84.012C123.12 84.012 125.227 83.3576 126.283 82.1315C126.944 81.3638 127.167 80.3994 126.928 79.3427C126.614 77.9551 125.521 76.4215 123.767 74.9086C122.006 73.3894 119.66 71.9633 116.985 70.7845C113.382 69.197 109.551 68.2142 106.198 68.0174C102.765 67.8159 100.214 68.4711 99.0148 69.8619C98.354 70.6295 98.1308 71.5939 98.37 72.6507C98.684 74.0382 99.7769 75.5719 101.531 77.0847C103.292 78.604 105.638 80.0301 108.313 81.2088C111.916 82.7963 115.747 83.7792 119.1 83.9759C119.507 84 119.903 84.012 120.284 84.012H120.285ZM105.03 68.7859C105.392 68.7859 105.766 68.7971 106.153 68.8196C109.412 69.0107 113.144 69.9703 116.662 71.5201C119.265 72.6675 121.542 74.0494 123.243 75.5173C124.867 76.9169 125.87 78.3012 126.146 79.5202C126.329 80.3304 126.171 81.033 125.675 81.6079C124.659 82.7875 122.28 83.3592 119.148 83.1745C115.889 82.9834 112.156 82.0239 108.639 80.4741C106.035 79.3266 103.759 77.9447 102.057 76.4769C100.434 75.0773 99.4308 73.6929 99.1546 72.474C98.9715 71.6638 99.1297 70.9612 99.6251 70.3862C100.516 69.352 102.455 68.7851 105.03 68.7851V68.7859ZM113.64 77.3866C114.085 77.3866 114.467 77.279 114.688 77.0229C114.847 76.8382 114.904 76.6013 114.848 76.3548C114.738 75.8698 114.18 75.3631 113.355 74.9994C112.359 74.5601 111.097 74.4092 110.613 74.9713C110.454 75.156 110.397 75.3928 110.453 75.6393C110.563 76.1243 111.121 76.631 111.946 76.9948C112.488 77.2333 113.109 77.3874 113.64 77.3874V77.3866ZM114.06 76.5146C113.901 76.6222 113.178 76.6599 112.27 76.2592C111.562 75.9477 111.282 75.6008 111.24 75.4787C111.4 75.3712 112.123 75.3334 113.031 75.7341C113.738 76.0457 114.019 76.3925 114.06 76.5146Z" fill="#2D0000"/>
<path d="M138.474 84.2352C139.425 82.7208 139.349 80.9526 138.656 79.3491C136.758 75.0636 131.362 71.8332 127.115 70.2393C129.196 71.5754 131.273 72.8562 133.223 74.3578C134.495 75.3334 135.735 76.4102 136.769 77.6355C138.35 79.4992 139.43 81.811 138.475 84.2352H138.474Z" fill="#808080"/>
<path d="M133.782 81.567C134.892 77.6091 130.92 74.3482 127.763 72.7856C126.64 72.2235 125.459 71.7658 124.245 71.4446C127.366 73.3693 131.108 75.1624 133.023 78.4016C133.058 78.4691 133.143 78.6313 133.179 78.6987C133.269 78.8858 133.37 79.1227 133.444 79.3162C133.705 80.0325 133.814 80.8033 133.782 81.5662V81.567Z" fill="#808080"/>
<path d="M128.12 79.2962C128.758 78.7277 128.577 77.7392 128.214 77.0647C127.567 75.8691 126.477 74.9858 125.313 74.3226C124.485 73.8705 123.596 73.5196 122.663 73.3662C123.181 73.7589 123.943 74.2591 124.481 74.6333C125.696 75.5086 128.899 77.5554 128.121 79.297L128.12 79.2962Z" fill="#808080"/>
<path d="M85.8235 66.442C85.5666 66.9768 85.4285 67.6007 85.4285 68.2006C85.4317 68.2857 85.4333 68.4503 85.4357 68.5346C85.4445 68.6382 85.4742 68.924 85.4879 69.0341C85.5915 69.6885 85.8091 70.3405 86.0773 70.9468C87.998 74.9785 92.351 78.0628 96.3466 79.8245C97.148 80.1674 97.9606 80.4806 98.7925 80.7343C98.0361 80.3039 97.2773 79.8928 96.5361 79.4527C92.6657 77.2148 84.4753 71.6293 85.8235 66.4404V66.442Z" fill="#808080"/>
<path d="M91.6179 68.7651C90.2737 69.5898 91.1433 71.4872 91.7946 72.4966C93.2945 74.7482 95.5067 76.4561 97.8531 77.7465C99.0318 78.3784 100.269 78.9052 101.56 79.2545C100.988 78.91 100.415 78.5792 99.8541 78.2347C97.1063 76.5292 94.3352 74.6767 92.2884 72.1481C91.6083 71.2463 90.5965 69.7584 91.6179 68.7651Z" fill="#808080"/>
<path d="M141.629 87.6279C140.295 88.1017 138.909 88.4181 137.52 88.6806C135.445 89.0693 133.323 89.2837 131.214 89.3825C127.236 89.5535 123.191 89.3102 119.261 88.6509C117.407 88.3595 115.543 87.9684 113.721 87.5147C113.27 87.3975 112.103 87.1164 111.665 86.9815C111.182 86.8434 110.446 86.6339 109.962 86.4957C109.187 86.2532 108.373 85.9923 107.596 85.7514C107.124 85.5884 106.058 85.2182 105.585 85.0544C104.8 84.7798 103.707 84.3526 102.924 84.0643C101.404 83.4661 99.1642 82.5226 97.6787 81.8682C97.6587 81.8593 97.6346 81.8682 97.6257 81.889C101.309 83.9688 105.392 85.6052 109.427 87.0048C113.943 88.5088 118.64 89.5977 123.381 90.057C127.66 90.4801 132.02 90.4054 136.236 89.5109C137.637 89.2042 139.026 88.822 140.359 88.2928C140.803 88.117 141.241 87.9266 141.664 87.701C141.684 87.6906 141.692 87.6665 141.681 87.6464C141.671 87.6279 141.649 87.6207 141.63 87.6279H141.629Z" fill="#808080"/>
<path d="M104.716 71.3438C101.861 70.7845 99.7161 69.4597 99.9266 68.3848C100.137 67.3098 102.623 66.8917 105.479 67.451C108.335 68.0103 110.479 69.3351 110.268 70.41C110.058 71.485 107.572 71.903 104.716 71.3438Z" fill="#2D0000"/>
<path d="M107.139 71.9897C107.644 71.9897 108.118 71.9535 108.548 71.8813C109.773 71.6749 110.523 71.1787 110.66 70.4825C110.796 69.7863 110.289 69.0435 109.232 68.3907C108.287 67.807 106.98 67.3316 105.554 67.0521C102.856 66.5238 99.8275 66.7823 99.5304 68.3024C99.3939 68.9986 99.9014 69.7413 100.958 70.3942C101.903 70.9779 103.21 71.4533 104.637 71.7327C105.505 71.903 106.358 71.9889 107.14 71.9889L107.139 71.9897ZM103.039 67.595C103.725 67.595 104.519 67.6672 105.399 67.8399C106.733 68.1016 107.945 68.5393 108.81 69.0741C109.529 69.5189 109.936 69.9991 109.872 70.3283C109.808 70.6575 109.25 70.949 108.415 71.0895C107.413 71.2582 106.126 71.2068 104.791 70.945C103.456 70.6832 102.244 70.2456 101.38 69.7108C100.66 69.266 100.253 68.7858 100.317 68.4566C100.406 68.0013 101.418 67.595 103.039 67.595Z" fill="#2D0000"/>
<path d="M143.118 80.2596C138.62 86.1334 119.998 86.4305 101.525 80.9236C83.0516 75.4168 71.7215 66.1913 76.2182 60.3183C80.7157 54.4445 99.3377 54.1474 117.811 59.6543C136.285 65.1611 147.615 74.3866 143.118 80.2596ZM109.668 70.2889C109.432 70.5973 110.026 71.0807 110.995 71.3698C111.965 71.6588 112.941 71.6428 113.177 71.3352C113.413 71.0277 112.819 70.5435 111.85 70.2544C110.881 69.9653 109.904 69.9814 109.668 70.2889Z" fill="#2D0000"/>
<path d="M142.79 80.0093C140.848 82.4608 137.197 83.369 134.226 83.8773C119.717 86.0389 99.577 81.1447 86.7646 74.1427C83.1656 72.1144 78.6312 69.1891 76.6775 65.4922C75.6457 63.4727 75.844 61.552 77.6074 60.0319C80.6643 57.4463 86.0805 56.816 90.003 56.5912C104.629 55.9552 124.633 60.6213 136.857 68.786C140.062 70.9709 145.881 75.8298 142.789 80.0085L142.79 80.0093ZM143.445 80.5112C145.914 77.3049 143.735 73.6529 141.299 71.1885C136.511 66.4791 130.296 63.5618 124.13 61.116C114.019 57.301 103.269 54.9651 92.4361 54.9009C89.9139 54.9129 87.4038 55.0663 84.9041 55.4806C82.8228 55.8323 80.69 56.3679 78.7637 57.3307C74.2333 59.5823 73.0818 63.4679 76.1155 67.6418C78.673 71.0721 82.3618 73.4281 86.0451 75.4596C91.9326 78.6153 98.2649 80.8075 104.714 82.456C112.765 84.4554 121.084 85.6462 129.393 85.2463C133.773 84.9902 140.556 84.119 143.445 80.5112H143.445Z" fill="#808080"/>
<path d="M109.341 70.0386C108.777 70.9596 110.35 71.7425 111.015 72.0164C111.712 72.2846 112.501 72.4877 113.265 72.2324C113.856 72.0244 114.208 71.4109 113.984 70.8103C113.506 69.6403 111.753 69.3986 110.669 69.5054C110.353 69.5368 110.025 69.5914 109.719 69.7351C109.599 69.7985 109.466 69.8708 109.342 70.0386H109.341ZM109.997 70.5405C109.983 70.5718 110.006 70.5606 110.045 70.5549C110.231 70.5308 110.43 70.5565 110.632 70.5951C110.926 70.6585 111.22 70.7637 111.499 70.8858C111.868 71.0576 112.207 71.2086 112.48 71.4551C112.347 71.2768 112.401 70.8545 112.658 70.7284C112.66 70.7268 112.667 70.7268 112.667 70.7284C112.552 70.7878 112.391 70.8039 112.223 70.8239C111.521 70.8737 110.684 70.8352 110.081 70.4554C110.038 70.4257 110.009 70.3943 110.01 70.4016C110.01 70.4048 110.019 70.4249 110.018 70.4578C110.018 70.4899 110.006 70.526 109.998 70.5413L109.997 70.5405Z" fill="#808080"/>
<path d="M125.028 74.4398C123.066 77.0013 115.21 77.2101 107.482 74.9063C99.7529 72.6025 95.0771 68.6583 97.038 66.0968C98.9997 63.5353 106.855 63.3265 114.584 65.6303C122.313 67.934 126.988 71.8783 125.028 74.4398Z" fill="#808080"/>
<path d="M117.736 76.9075C117.969 76.9075 118.2 76.9043 118.428 76.8986C121.865 76.8071 124.322 76.021 125.346 74.684C125.879 73.9878 126.013 73.1624 125.732 72.2976C124.91 69.7666 120.58 66.9987 114.699 65.2458C110.921 64.12 106.993 63.5491 103.638 63.6382C100.2 63.7297 97.743 64.5159 96.7192 65.8528C96.186 66.549 96.0527 67.3745 96.3338 68.2393C97.1552 70.7703 101.486 73.5382 107.367 75.2911C110.888 76.3406 114.54 76.9083 117.736 76.9083V76.9075ZM124.709 74.195C123.848 75.3192 121.551 76.0121 118.407 76.0957C115.134 76.1824 111.295 75.6235 107.596 74.521C102.048 72.8669 97.8289 70.2427 97.0982 67.9912C96.8967 67.3713 96.9818 66.8309 97.3576 66.341C98.2184 65.2169 100.516 64.5239 103.659 64.4404C106.932 64.3529 110.771 64.9125 114.47 66.015C120.018 67.6692 124.237 70.2933 124.968 72.5449C125.17 73.1648 125.085 73.7052 124.709 74.195Z" fill="#2D0000"/>
<path d="M137.756 75.5583C139.001 73.155 137.295 70.6713 135.5 69.1047C132.551 66.5504 128.488 64.8794 124.712 64.0066C128.514 65.843 133.965 68.0392 136.663 71.2816C137.683 72.5238 138.223 73.9595 137.756 75.5583Z" fill="#808080"/>
<path d="M132.755 73.5555C133.277 70.3139 129.862 67.9571 127.27 66.804C125.596 66.0613 123.821 65.5498 122.007 65.3057C124.206 66.2933 126.424 67.1389 128.506 68.3385C130.467 69.482 132.58 71.1136 132.755 73.5563L132.755 73.5555Z" fill="#808080"/>
<path d="M126.837 71.9826C127.2 71.6357 127.197 71.0447 127.005 70.6047C126.519 69.4781 125.397 68.7104 124.351 68.1507C123.21 67.571 121.954 67.188 120.671 67.1382C121.921 67.8496 123.202 68.4037 124.432 69.1087C125.315 69.6347 127.301 70.762 126.838 71.9818L126.837 71.9826Z" fill="#808080"/>
<path d="M101.05 72.8352C96.8525 71.336 94.3905 68.6139 95.2361 67.1838L78.1518 63.45C79.2792 71.662 94.6098 77.2428 94.6098 77.2428L101.051 72.8352H101.05Z" fill="#808080"/>
<path d="M83.1488 63.8862C82.137 66.7264 85.2598 69.7295 87.3604 71.2271C90.4688 73.4361 94.0886 74.8967 97.8313 75.5752C96.2783 74.9441 94.7342 74.3154 93.2214 73.6055C89.9452 72.0774 82.4622 68.175 83.1496 63.8862H83.1488Z" fill="#2D0000"/>
<path d="M89.204 65.4954C88.2003 66.1297 88.8001 67.4699 89.3558 68.211C91.0477 70.4578 94.0332 72.1031 96.6316 73.0723C97.8529 73.5179 99.1136 73.8616 100.402 74.0399C98.0593 73.0177 95.7114 71.9939 93.5088 70.7051C92.2827 69.9824 87.6374 67.1615 89.2032 65.4954H89.204Z" fill="#2D0000"/>
<path d="M120.072 70.298C116.106 66.7986 109.876 65.652 104.759 66.5529C104.738 66.5569 104.723 66.5778 104.727 66.5995C104.73 66.6196 104.747 66.6332 104.767 66.6324C106.277 66.6091 107.773 66.6364 109.263 66.789C111.733 67.0291 114.18 67.5944 116.485 68.5218C117.406 68.8976 118.31 69.3264 119.172 69.8267C119.46 69.9937 119.745 70.1696 120.019 70.3591C120.037 70.3727 120.063 70.3687 120.076 70.3502C120.087 70.3342 120.084 70.3117 120.071 70.2988L120.072 70.298Z" fill="#2D0000"/>
<path d="M110.9 70.9963C109.852 70.791 109.054 70.3553 109.119 70.0233C109.184 69.6912 110.087 69.5885 111.135 69.7938C112.184 69.9991 112.981 70.4347 112.916 70.7668C112.851 71.0988 111.948 71.2016 110.9 70.9963Z" fill="#2D0000"/>
<path d="M111.912 71.5C112.055 71.5 112.192 71.4928 112.318 71.4783C113.047 71.3956 113.257 71.0857 113.306 70.8408C113.449 70.1068 112.266 69.6042 111.208 69.397C110.151 69.1898 108.865 69.2083 108.721 69.943C108.578 70.6778 109.761 71.1796 110.819 71.3868C111.201 71.4615 111.576 71.5 111.911 71.5H111.912ZM112.376 70.6585C112.114 70.7099 111.62 70.7251 110.973 70.5983C110.326 70.4714 109.874 70.2706 109.651 70.1245C109.913 70.0739 110.407 70.0579 111.054 70.1847C111.701 70.3116 112.153 70.5123 112.376 70.6585Z" fill="#2D0000"/>
</g>
<defs>
<clipPath id="clip0_437_9579">
<rect width="144.525" height="106.892" fill="white" transform="matrix(-1 0 0 1 145 0)"/>
</clipPath>
</defs>
</svg>
