<svg width="34" height="3" viewBox="0 0 34 3" fill="none" xmlns="http://www.w3.org/2000/svg">
<path fill-rule="evenodd" clip-rule="evenodd" d="M17.9887 2.58129C18.0029 2.58272 18.0153 2.58432 18.0264 2.58577C18.0454 2.58824 18.0611 2.59028 18.0772 2.59028C18.9459 2.59028 19.8133 2.59028 20.682 2.59284C20.768 2.59284 20.8039 2.55435 20.8373 2.48505C21.144 1.86527 21.4532 1.24676 21.7638 0.629545C21.7843 0.588483 21.8164 0.524323 21.8459 0.52304C22.0098 0.516168 22.1745 0.516806 22.3497 0.517486C22.4035 0.517694 22.4583 0.517907 22.5144 0.517907C22.1628 1.21853 21.8253 1.89221 21.4763 2.59028H21.6457C21.8539 2.59028 22.0621 2.59012 22.2704 2.58995H22.2704C22.8954 2.58947 23.5207 2.58899 24.1453 2.59284C24.2557 2.59284 24.3057 2.55306 24.3506 2.45939C24.6522 1.8473 24.9588 1.2365 25.2655 0.626979L25.2676 0.62298C25.2882 0.58305 25.3191 0.522997 25.3476 0.521756C25.5116 0.514886 25.6755 0.515523 25.8503 0.516202C25.904 0.516411 25.9588 0.516624 26.0149 0.516624L24.9819 2.57873C25.0024 2.58078 25.0186 2.58282 25.0322 2.58455C25.0527 2.58714 25.0674 2.58899 25.082 2.58899C25.9507 2.58899 26.8182 2.58899 27.6869 2.59156C27.7754 2.59156 27.8075 2.54793 27.8396 2.4812C28.066 2.02405 28.2942 1.56778 28.5227 1.11092L28.5228 1.11083L28.5229 1.1106L28.5232 1.11004L28.6608 0.834857C28.8533 0.449897 28.7506 0.285647 28.3156 0.285647C25.3015 0.285647 22.286 0.285647 19.2718 0.283081C19.1718 0.283081 19.1179 0.308745 19.0717 0.402419C18.8271 0.898134 18.5791 1.39184 18.3312 1.88547L18.3311 1.88572C18.2357 2.07564 18.1403 2.26554 18.0451 2.45554C18.0272 2.49275 18.0118 2.53125 17.9925 2.58001L17.9887 2.58129ZM7.51132 2.59046C7.52221 2.59182 7.53133 2.59318 7.53932 2.59437L7.53932 2.59438C7.55392 2.59655 7.5647 2.59816 7.57548 2.59816L8.01624 2.59823H8.01626H8.01628H8.0163C8.75086 2.59841 9.48528 2.59859 10.2188 2.59431C10.2637 2.59431 10.3292 2.54683 10.351 2.50449C10.4478 2.32061 10.5403 2.13427 10.6328 1.94803L10.6328 1.94801L10.6328 1.94798L10.6328 1.94794C10.6739 1.86517 10.715 1.78243 10.7565 1.69992C10.8257 1.56262 10.8707 1.55877 10.9682 1.68324C11.0119 1.73923 11.0561 1.79502 11.1004 1.85086L11.1004 1.8509L11.1004 1.85094L11.1005 1.85098C11.2185 1.99987 11.3367 2.14908 11.4468 2.30302C11.5969 2.51347 11.7907 2.60201 12.0486 2.60073C12.6105 2.59606 13.1723 2.59682 13.7337 2.59759H13.7337H13.7337H13.7337C13.9441 2.59787 14.1545 2.59816 14.3647 2.59816C14.3876 2.59816 14.4109 2.59609 14.4391 2.59359L14.4391 2.59359C14.4552 2.59215 14.4729 2.59058 14.493 2.58918C14.3663 2.42788 14.2422 2.27056 14.1166 2.11124L14.1145 2.10855L14.114 2.1079L14.1136 2.10744L14.1113 2.10451L14.1104 2.10336C13.9812 1.9395 13.8503 1.7734 13.7129 1.59855C13.7525 1.59855 13.7872 1.59821 13.8188 1.5979C13.8742 1.59736 13.9199 1.59691 13.9657 1.59855C14.221 1.6101 14.3994 1.50231 14.5059 1.26748C14.5486 1.17267 14.5954 1.07983 14.6421 0.986997C14.6795 0.912731 14.7169 0.838464 14.7522 0.763184C14.8895 0.468048 14.7856 0.299948 14.461 0.285833H14.3955C12.5234 0.285833 10.6525 0.285833 8.78037 0.28455C8.69184 0.28455 8.64051 0.307647 8.59945 0.392339C8.30686 0.987421 8.00956 1.58062 7.7124 2.17355L7.56393 2.46984C7.54863 2.49942 7.53576 2.52981 7.52146 2.56359L7.51004 2.59046H7.51132ZM11.083 1.04575L11.083 1.04573L11.083 1.04559C11.1563 0.897938 11.2295 0.750289 11.3005 0.6015C11.3313 0.53734 11.3672 0.511676 11.4391 0.514243C11.5794 0.517794 11.7196 0.517045 11.8693 0.516247C11.9359 0.515891 12.0044 0.515526 12.0756 0.515526L12.0021 0.663274C11.8877 0.893375 11.78 1.11018 11.6688 1.32523C11.6572 1.34832 11.6136 1.365 11.5841 1.36629C11.4357 1.36902 11.2879 1.36852 11.1339 1.368H11.1339H11.1339H11.1339H11.1338H11.1338H11.1338C11.0708 1.36779 11.0068 1.36757 10.9412 1.36757C10.945 1.35542 10.9483 1.34406 10.9513 1.33338L10.9513 1.33332C10.9585 1.30794 10.9647 1.28644 10.9746 1.26748H10.9733C11.0097 1.19349 11.0463 1.11964 11.0829 1.04579L11.083 1.04577L11.083 1.04575ZM3.56432 2.51344C3.5425 2.55322 3.48476 2.59942 3.44242 2.59942V2.59813C2.73412 2.60121 2.02583 2.60101 1.31753 2.6008L0.786258 2.6007C0.774596 2.6007 0.763561 2.59819 0.749207 2.59493L0.749205 2.59493L0.749185 2.59492C0.743014 2.59352 0.736228 2.59198 0.728516 2.59044C0.736961 2.57242 0.744417 2.55539 0.751536 2.53913C0.760643 2.51834 0.769197 2.49881 0.778559 2.48008L1.03718 1.96042C1.29558 1.44143 1.55435 0.921724 1.81023 0.401295C1.85257 0.314038 1.90261 0.284524 1.99885 0.284524C3.11906 0.286064 4.23926 0.286218 5.35947 0.286372C6.10627 0.286475 6.85308 0.286577 7.59988 0.28709C8.01691 0.28709 8.12213 0.45519 7.93992 0.826035C7.90796 0.890751 7.87563 0.955225 7.84331 1.01968L7.84329 1.01973L7.84326 1.01979C7.7705 1.16489 7.6978 1.3099 7.6294 1.45737C7.52546 1.68065 7.35736 1.77945 7.111 1.77945C6.60671 1.77753 6.10275 1.77753 5.59895 1.77753H5.59886C5.09508 1.77753 4.59147 1.77753 4.08785 1.7756C3.9775 1.7756 3.91462 1.80383 3.86843 1.90777C3.77604 2.11309 3.6721 2.31455 3.56432 2.51344ZM4.25106 1.14598C4.20421 1.24066 4.15735 1.33539 4.11095 1.43042C4.10031 1.45259 4.09212 1.47659 4.08215 1.50581L4.08215 1.50581L4.08215 1.50582C4.07769 1.51889 4.07287 1.53301 4.06732 1.54848C4.12534 1.54848 4.18212 1.54864 4.23795 1.54881L4.23805 1.54881C4.40196 1.54928 4.55772 1.54974 4.71275 1.54591C4.74355 1.54591 4.78846 1.51896 4.80258 1.49202C4.93084 1.23962 5.05577 0.985551 5.18879 0.715029L5.1888 0.715013L5.28633 0.516783C5.21601 0.516783 5.14876 0.517152 5.08367 0.51751L5.08366 0.51751C4.93855 0.518306 4.80417 0.519044 4.67041 0.5155C4.59085 0.512934 4.54722 0.537315 4.5113 0.61174C4.42676 0.790863 4.33895 0.968347 4.25106 1.14597L4.25106 1.14598L4.25106 1.14598ZM28.8904 2.59921H32.8028C33.0042 2.59921 33.0145 2.59151 33.0697 2.36823H31.1937C31.2012 2.34921 31.2073 2.33273 31.2129 2.31787C31.2215 2.29464 31.2287 2.27538 31.2373 2.25659C31.2841 2.16162 31.3314 2.06695 31.3787 1.97233L31.3788 1.97196L31.379 1.97167C31.4676 1.7942 31.5562 1.61687 31.6415 1.43791C31.6774 1.36348 31.7211 1.34039 31.8019 1.34039C32.0887 1.34314 32.3749 1.34261 32.6613 1.34209H32.6614H32.6614C32.7761 1.34188 32.8907 1.34167 33.0055 1.34167C33.2108 1.34167 33.2339 1.32371 33.2788 1.10684H31.8096C31.8373 1.05151 31.8645 0.998305 31.8912 0.946369L31.8913 0.946219C31.9499 0.832006 32.0053 0.723924 32.0547 0.612812C32.0906 0.531971 32.1406 0.510156 32.2266 0.51144C32.6239 0.515546 33.0221 0.516367 33.4204 0.517189L33.7189 0.517856C33.9101 0.517856 33.9268 0.505024 33.973 0.297145L33.9418 0.294942C33.9129 0.292817 33.8846 0.290729 33.8562 0.290729L32.8419 0.29089C31.8276 0.29113 30.8135 0.291371 29.8001 0.289446C29.5448 0.289446 29.3729 0.392102 29.2612 0.623078C29.1072 0.941392 28.948 1.25742 28.7891 1.57308L28.7891 1.5731C28.7097 1.7308 28.6303 1.8884 28.5516 2.04615C28.3566 2.43624 28.4567 2.59792 28.8904 2.59792V2.59921ZM14.657 2.59515C14.6499 2.59404 14.6421 2.59281 14.633 2.59158L14.6343 2.5903C14.6419 2.57365 14.6485 2.55767 14.6549 2.54227C14.6637 2.52089 14.6721 2.50062 14.6818 2.48122C14.7763 2.29251 14.871 2.10389 14.9656 1.91529C15.2177 1.41266 15.4698 0.910152 15.7199 0.406288C15.7571 0.331863 15.7969 0.295933 15.8867 0.295933C16.7413 0.2985 17.5959 0.2985 18.4505 0.2985C18.472 0.2985 18.4936 0.300641 18.5193 0.303195C18.5334 0.304595 18.5487 0.306119 18.566 0.307482C18.5582 0.325708 18.5516 0.342454 18.5455 0.35815C18.5365 0.381132 18.5284 0.401863 18.5185 0.421687C18.4029 0.652846 18.2873 0.88372 18.1718 1.1145C17.941 1.57551 17.7104 2.03614 17.4804 2.49791C17.4496 2.56078 17.4214 2.60185 17.338 2.60185C16.4564 2.59928 15.5762 2.59928 14.6946 2.59928C14.6833 2.59928 14.672 2.5975 14.657 2.59515Z" fill="white"/>
</svg>
