<svg width="370" height="99" viewBox="0 0 370 99" fill="none" xmlns="http://www.w3.org/2000/svg">
<g clip-path="url(#clip0_416_481)">
<path d="M119.858 61.5694C153.42 61.5694 160.486 45.834 160.486 30.656C160.486 15.478 153.42 -0.0429688 119.858 -0.0429688H0V23.4529H119.858C126.924 23.4529 129.638 23.6244 129.638 30.6132C129.638 37.6019 126.881 37.9878 119.858 37.9878H40.6276C7.06568 38.0735 0 56.1671 0 71.3451V99.0428H30.8046V71.3451C30.8046 64.3135 33.562 61.6123 40.5845 61.6123H119.815L119.858 61.5694Z" fill="#2D0000"/>
<path d="M329.372 -9.30466e-05H209.514C176.599 0.257161 169.619 18.1792 169.619 33.2715V65.7712C169.619 72.8029 166.862 75.504 159.839 75.504H44.7206V98.9999H159.882C193.444 98.9999 200.51 80.9064 200.51 65.7284V33.2286C200.51 26.197 203.267 23.4958 210.29 23.4958H329.416C336.481 23.4958 339.195 23.6673 339.195 30.656C339.195 37.6448 336.438 38.0307 329.416 38.0307H250.185C216.623 38.0307 209.558 56.1242 209.558 71.3022V98.9999H240.362V71.3022C240.362 64.2706 243.12 61.5694 250.142 61.5694H329.372C362.934 61.5694 370 45.834 370 30.656C370 15.478 362.934 -0.0429688 329.372 -0.0429688V-9.30466e-05Z" fill="#2D0000"/>
</g>
<defs>
<clipPath id="clip0_416_481">
<rect width="370" height="99" fill="white"/>
</clipPath>
</defs>
</svg>
