<svg width="137" height="135" viewBox="0 0 137 135" fill="none" xmlns="http://www.w3.org/2000/svg">
<g clip-path="url(#clip0_437_9864)">
<path d="M78.1983 11.2432C78.2793 9.47718 76.2297 7.94824 73.6203 7.8282C71.011 7.70816 68.8301 9.04247 68.7491 10.8085C68.6681 12.5745 70.7177 14.1034 73.327 14.2235C75.9363 14.3435 78.1173 13.0092 78.1983 11.2432Z" fill="#808080"/>
<path d="M78.8636 11.2739C78.5648 13.8578 75.4517 14.5904 73.3195 14.3281C71.336 14.1374 68.6406 13.1251 68.5218 10.7978C68.4906 9.60056 69.3664 8.56861 70.346 7.98388C71.8449 7.08829 73.7025 6.8722 75.3929 7.27781C77.2333 7.67071 79.0425 9.22152 78.8648 11.2727L78.8636 11.2739ZM77.5263 11.2126C77.479 10.4072 76.8121 9.85017 76.1417 9.44108C74.576 8.49927 72.5279 8.23464 70.7891 8.86791C69.6837 9.26197 68.696 10.2824 69.0156 11.5316C69.3514 12.7935 70.5999 13.577 71.7929 13.9179C73.2502 14.3304 74.966 14.0935 76.2006 13.2788C76.9206 12.812 77.5656 12.055 77.5263 11.2126Z" fill="#2D0000"/>
<path d="M52.3114 32.5345C52.3114 32.5345 50.5611 11.8863 68.3094 10.0767C86.0577 8.267 90.7296 29.8524 86.5562 34.8041" fill="#2D0000"/>
<path d="M52.255 32.5405C52.008 30.4235 52.0542 28.2694 52.3046 26.1524C52.563 24.0134 53.058 21.8975 53.8669 19.8948C55.4765 15.7578 58.6241 12.2806 62.771 10.6015C68.2067 8.414 74.8021 8.50876 79.767 11.8346C85.2547 15.5128 88.2927 22.2188 88.3574 28.7294C88.332 30.8048 88.0435 33.2454 86.6024 34.8425L86.5147 34.7674C86.9185 34.1988 87.1735 33.5471 87.3374 32.878C88.557 27.2537 85.8132 19.9018 81.9386 15.8063C79.069 12.6909 75.0352 10.8962 70.8029 10.8257C59.7053 10.6501 54.0088 17.8957 52.6496 28.3307C52.4696 29.7209 52.3611 31.1284 52.3703 32.5313L52.255 32.5405Z" fill="#2D0000"/>
<path d="M63.5464 25.8797C63.5464 25.8797 52.1869 20.2438 40.922 7.40631C33.1243 -1.47907 20.2452 -0.58117 15.6737 10.0908C11.1011 20.7627 18.1072 39.6486 48.0942 39.6486" fill="#808080"/>
<path d="M63.521 25.9317C61.3599 24.9991 59.3107 23.8366 57.2984 22.6186C53.2923 20.156 49.4915 17.2751 45.9943 14.1273C45.7496 13.8858 44.5727 12.8446 44.357 12.6308C44.1597 12.4367 43.6127 11.9005 43.4074 11.6982C42.422 10.7483 41.2474 9.52225 40.3128 8.51457C39.9989 8.18522 39.6112 7.77499 39.2939 7.45027C36.7474 4.9588 33.4278 3.14683 29.859 2.79437C23.3121 2.08946 17.9952 6.26231 16.2391 12.4748C15.383 15.6018 15.5272 19.0201 16.5333 22.1182L16.6545 22.5111C16.7445 22.748 17.0029 23.4171 17.0976 23.6656C17.2176 23.921 17.5037 24.5438 17.6168 24.7911C17.7391 25.0303 18.0772 25.6347 18.2076 25.8832C18.5006 26.3512 18.781 26.8308 19.1052 27.2791C21.3737 30.509 24.504 33.0155 28.0094 34.8333C31.5471 36.6718 35.499 37.8736 39.4266 38.5913C40.5285 38.8178 41.7562 38.9738 42.8674 39.1332C44.0108 39.2465 45.1958 39.4013 46.3462 39.4649L48.0942 39.5897V39.7053C45.775 39.8023 43.3647 39.822 41.057 39.6371L40.1755 39.5793L39.2974 39.4822C38.7678 39.4233 38.0559 39.3516 37.5401 39.2684C31.6509 38.3925 25.7813 36.3956 21.1256 32.5429C18.3056 30.2271 15.9403 27.1855 14.5845 23.758L14.4068 23.3281L14.2568 22.8879L13.9591 22.0038L13.7191 21.1013C13.1007 18.6919 12.9634 16.1126 13.3303 13.6477C13.9222 9.56847 16.0303 5.66256 19.2922 3.09945C25.7063 -1.92739 34.524 -0.492144 40.2135 4.91258C40.4905 5.18068 40.7651 5.4638 41.0397 5.73536C41.2624 5.9815 41.5935 6.35129 41.8162 6.6009C42.8039 7.73108 43.9531 9.07041 44.9858 10.1567C45.6458 10.8882 46.6877 11.949 47.3869 12.6585C48.0792 13.3738 49.1523 14.3792 49.8723 15.083C52.165 17.2174 54.6665 19.3853 57.1461 21.3001C58.7511 22.547 60.4068 23.758 62.0995 24.8836C62.5853 25.2071 63.0768 25.5238 63.5741 25.8277L63.5234 25.9317H63.521Z" fill="#2D0000"/>
<path d="M66.1678 84.9041C83.5659 84.9041 97.6699 70.7787 97.6699 53.354C97.6699 35.9294 83.5659 21.804 66.1678 21.804C48.7697 21.804 34.6658 35.9294 34.6658 53.354C34.6658 70.7787 48.7697 84.9041 66.1678 84.9041Z" fill="#808080"/>
<path d="M99.3281 53.354C99.2115 76.7491 75.1875 92.3831 53.7296 83.4249C41.7458 78.5529 33.542 66.3083 33.5847 53.3529C33.4428 29.996 57.2246 13.9644 78.8013 22.8059C91.0412 27.7044 99.5058 40.1109 99.3281 53.3529V53.354ZM96.0108 53.354C95.6566 26.5026 64.0864 13.2988 44.7804 31.9351C25.5713 51.1827 38.987 83.7936 66.1668 83.8456C78.694 83.8837 90.4054 75.3057 94.3516 63.4551C95.4604 60.2148 96.0408 56.7827 96.0096 53.3552L96.0108 53.354Z" fill="#2D0000"/>
<path d="M77.4301 51.8839C77.7755 43.4908 76.5045 36.6228 74.5912 36.5438C72.6779 36.4648 70.8468 43.2048 70.5015 51.5979C70.1561 59.991 71.4271 66.8589 73.3404 66.9379C75.2537 67.0169 77.0848 60.277 77.4301 51.8839Z" fill="#2D0000" stroke="#2D0000" stroke-width="0.151626" stroke-miterlimit="10"/>
<path d="M79.4532 62.1827C78.2602 65.586 77.9671 68.1121 78.8809 68.587C80.2909 69.3209 84.0374 64.9019 87.2474 58.7159C87.612 58.0133 87.9524 57.32 88.2697 56.6382L79.4521 62.1816L79.4532 62.1827Z" fill="#2D0000" stroke="#2D0000" stroke-width="0.151626" stroke-miterlimit="10"/>
<path d="M79.1163 58.2523C79.1163 58.2523 76.9771 62.1756 79.4533 63.7957C81.9294 65.4159 89.6255 54.1384 95.4316 53.3538" fill="#808080"/>
<path d="M79.1672 58.2801C79.0149 59.7535 78.5176 62.0785 79.9056 63.0076L79.9333 63.0273L79.9472 63.0377C79.9472 63.0377 79.9483 63.0377 79.9495 63.0377C79.9518 63.0377 79.9529 63.0377 79.9529 63.0412C79.9529 63.0435 79.9576 63.0412 79.9576 63.0412C79.9576 63.0446 79.9622 63.0435 79.9656 63.0435C80.0176 63.0631 80.1468 63.0377 80.2172 63.0227C80.4179 62.9672 80.6141 62.8805 80.8391 62.758C82.1441 62.0081 83.2945 60.9426 84.4702 59.9442C86.0764 58.5517 87.7033 57.1268 89.4767 55.8672C90.3652 55.242 91.2894 54.6515 92.2794 54.1754C93.2601 53.7028 94.3298 53.3272 95.4247 53.2937L95.4397 53.4081C94.4198 53.6751 93.4955 54.1974 92.6313 54.7879C90.0248 56.6195 87.8936 58.9503 85.5721 61.1564C84.3641 62.2854 83.1756 63.4676 81.7022 64.3273C80.9199 64.7769 79.8526 65.112 78.9987 64.5735C78.5014 64.258 78.0849 63.8085 77.8241 63.2769C77.1203 61.822 77.6153 60.0932 78.5026 58.866C78.6699 58.6349 78.851 58.4165 79.0656 58.2212L79.1672 58.2766V58.2801Z" fill="#2D0000"/>
<path d="M107.581 68.0642C113.757 66.8384 118.047 62.2277 117.164 57.7659C116.282 53.3041 110.559 50.6808 104.383 51.9066C98.2075 53.1325 93.9167 57.7432 94.7996 62.205C95.6825 66.6668 101.405 69.2901 107.581 68.0642Z" fill="#808080"/>
<path d="M118.187 57.5569C118.676 60.5337 117.098 63.3244 114.862 65.1144C112.77 66.8085 110.217 67.7619 107.609 68.1953C104.415 68.6945 100.984 68.4483 98.1326 66.8236C96.3973 65.839 94.9734 64.2616 94.4911 62.2624C93.8069 59.5225 95.0946 56.6786 97.003 54.7372C98.9311 52.7461 101.482 51.4229 104.163 50.777C106.908 50.1356 109.819 50.1333 112.503 51.1317C115.286 52.1544 117.719 54.5338 118.19 57.5592L118.187 57.5569ZM116.143 57.9625C115.593 55.7715 113.608 54.4067 111.555 53.6637C108.234 52.4387 104.404 52.649 101.126 53.9838C97.2419 55.5172 93.5242 59.563 95.6796 63.8953C96.5507 65.6044 98.2053 66.797 99.9649 67.4869C102.368 68.4183 105.059 68.5096 107.555 67.9225C110.589 67.1957 113.48 65.4496 115.169 62.8056C116.092 61.3934 116.562 59.5607 116.143 57.9613V57.9625Z" fill="#2D0000"/>
<path d="M116.324 74.5615C116.324 74.5615 118.905 78.6858 124.183 80.2632C134.23 83.2666 124.943 93.6104 117.923 89.3312C110.903 85.0509 107.795 77.491 107.795 77.491" fill="#808080"/>
<path d="M116.373 74.53C118.251 76.5951 120.666 78.2222 123.306 79.1027C123.686 79.2321 124.243 79.3766 124.634 79.4875C125.66 79.7626 126.653 80.1636 127.542 80.7957C129.722 82.3153 130.267 84.9142 128.969 87.2242C127.056 90.6194 122.588 92.2904 118.939 90.9198C117.942 90.5558 117.075 89.9503 116.232 89.3274C113.853 87.5455 111.837 85.2678 110.266 82.7729C109.229 81.1204 108.341 79.3685 107.741 77.5115L107.847 77.4676C108.559 78.7179 109.37 79.8989 110.232 81.043C112.362 83.8407 114.886 86.3448 117.876 88.1776C119.099 88.9888 120.552 89.4395 122.021 89.272C124.329 89.0512 126.869 87.4438 127.46 85.1361C127.932 83.0733 125.836 81.7791 124.104 81.1574C123.65 80.9806 123.151 80.8038 122.713 80.5946L122.028 80.2653C120.492 79.4425 119.068 78.3343 117.931 77.0215C117.286 76.2727 116.708 75.4707 116.273 74.5913L116.371 74.53H116.373Z" fill="#2D0000"/>
<path d="M100.166 58.1782C102.005 56.8886 104.059 56.2646 106.028 56.0219C110.118 55.5169 114.105 57.3994 116.506 60.7518C116.969 61.3977 117.528 62.046 118.198 62.6273C120.876 64.9535 122.09 75.429 122.09 75.429C122.09 75.429 100.202 81.4762 98.0046 71.738C95.8077 61.9998 100.166 60.0896 100.166 60.0896" fill="#808080"/>
<path d="M100.132 58.1311C101.832 56.7328 103.962 55.9112 106.129 55.5899C110.426 54.9382 114.688 56.9824 117.17 60.5C117.521 60.9704 117.913 61.4199 118.338 61.822C118.543 62.0104 118.759 62.1999 118.958 62.4102C120.051 63.6987 120.538 65.2403 120.989 66.805C121.737 69.6281 122.106 72.5125 122.145 75.4222C122.145 75.4222 122.145 75.4731 122.145 75.4742L122.104 75.4858C116.344 76.9199 108.475 78.2881 102.737 76.4981C100.288 75.7054 98.3301 74.0667 97.8789 71.4273C97.5351 69.828 97.3101 68.1928 97.3297 66.553C97.3562 64.2303 97.9701 61.2812 100.14 60.0355L100.187 60.1418C98.0647 61.3725 97.4716 64.2742 97.4451 66.5554C97.4254 68.1847 97.6493 69.8118 97.9908 71.4031C98.4339 74.002 100.36 75.6071 102.772 76.3883C108.476 78.1691 116.34 76.802 122.073 75.3737C122.073 75.3737 122.03 75.4373 122.031 75.4361C121.341 72.6627 120.697 69.865 119.803 67.1667C119.493 66.2549 119.163 65.3766 118.729 64.5319C118.504 64.1136 118.257 63.6964 117.941 63.344C117.486 62.9152 117 62.4749 116.601 61.9896C116.426 61.7793 116.232 61.5424 116.07 61.3182C115.05 59.8483 113.716 58.6083 112.141 57.7474C110.723 56.9662 109.127 56.5109 107.51 56.4173C105.679 56.348 103.835 56.6588 102.118 57.3037C101.458 57.5544 100.818 57.8676 100.198 58.227L100.132 58.1322V58.1311Z" fill="#2D0000"/>
<path d="M120.035 70.1157C120.035 70.1157 124.689 79.2495 131.46 82.0669C140.458 85.8122 133.14 96.1374 125.241 91.782C118.266 87.9362 114.605 75.6799 114.605 75.6799" fill="#808080"/>
<path d="M120.087 70.0891C122.809 74.0285 125.925 77.8616 130.077 80.3034C130.963 80.8246 131.94 81.1401 132.86 81.5942C135.541 82.9024 137.337 85.5394 136.551 88.5983C135.4 92.874 130.49 94.9529 126.474 93.5061C121.711 91.7958 118.725 86.9238 116.774 82.5476C115.826 80.3335 115.047 78.0512 114.551 75.6972L114.661 75.6637C116.543 79.9394 118.764 84.2047 121.849 87.6807C123.662 89.6429 125.9 91.4931 128.641 91.6941C130.124 91.7947 131.655 91.3267 132.783 90.3629C134.758 88.7069 135.145 86.0953 133.143 84.3064C132.474 83.6893 131.603 83.2213 130.761 82.8423C130.048 82.5071 129.359 82.0888 128.712 81.6393C128.207 81.2938 127.697 80.887 127.236 80.4883C124.932 78.4845 123.088 76.0092 121.574 73.3745C120.979 72.3287 120.436 71.2551 119.984 70.1423L120.087 70.0903V70.0891Z" fill="#2D0000"/>
<path d="M101.843 62.9579C101.843 62.9579 98.5574 59.401 95.577 64.8485C94.5305 66.7622 96.7285 75.4418 93.1113 80.2029C89.494 84.9628 106.196 91.8305 103.005 70.8056" fill="#808080"/>
<path d="M101.801 62.9972C99.9533 61.6913 98.286 62.0426 97.0987 63.8696C96.8056 64.2972 96.5576 64.7779 96.3349 65.2633C96.321 65.3268 96.306 65.3835 96.2956 65.4528C96.2703 65.5834 96.2599 65.7544 96.253 65.8908C96.2149 66.8511 96.3545 68.2251 96.4157 69.2154C96.681 73.0277 96.7226 77.5242 94.3653 80.8373C94.2522 81.0025 94.0607 81.2382 94.0168 81.422C93.8657 81.9304 94.2407 82.432 94.5937 82.7821C95.7037 83.8291 97.5106 84.2174 98.9391 83.6719C100.347 83.1334 101.273 81.808 101.814 80.4316C102.99 77.4028 102.966 74.0423 102.95 70.8148L103.064 70.7974C103.356 71.7936 103.588 72.8093 103.762 73.8401C104.356 77.4999 104.356 82.0668 101.468 84.8333C98.9818 87.2184 94.723 86.9272 92.3853 84.4265C91.1288 83.0999 90.7895 81.1227 91.8649 79.5649C92.1811 79.1258 92.5399 78.5931 92.7661 78.1066C94.0364 75.3817 94.063 72.2431 94.1668 69.2628C94.2072 68.0633 94.2037 66.8672 94.4126 65.6585C94.5026 65.1708 94.6445 64.6693 94.9376 64.2614C95.5641 63.3242 96.3187 62.4355 97.3283 61.8647C98.3668 61.2638 99.6579 61.2268 100.691 61.8508C101.167 62.1339 101.573 62.4922 101.888 62.922L101.804 63.0006L101.801 62.9972Z" fill="#2D0000"/>
<path d="M90.3651 86.2686C88.9966 87.9083 87.7816 96.0588 87.7816 96.0588C92.6 98.3156 98.9473 98.6658 102.897 95.6855L103.083 95.5873L100.474 86.3841L90.3651 86.2686Z" fill="#808080"/>
<path d="M90.5554 86.4281C90.0927 87.088 89.8804 87.9096 89.652 88.6804C89.4304 89.4881 89.2493 90.3109 89.0843 91.1372C88.7589 92.7885 88.4947 94.4653 88.2789 96.1328C88.2789 96.1328 87.995 95.6024 87.9939 95.6024C91.4485 97.2595 95.5019 97.9748 99.2646 97.0723C100.521 96.7615 101.725 96.2334 102.776 95.4753L102.784 95.4718L102.981 95.3967L102.875 95.6452C101.855 92.6233 100.903 89.5771 100.111 86.4859L100.468 86.7586L90.3639 86.3253V86.2097L100.477 86.0075L100.745 86.0017C101.014 86.8545 101.265 87.7143 101.519 88.5718C102.185 90.9338 102.779 93.3155 103.328 95.7076L103.182 95.7757C101.153 97.4352 98.1488 98.2314 95.4258 98.206C92.6012 98.2083 89.795 97.5554 87.2335 96.3639C87.5116 94.545 87.9189 92.7573 88.3516 90.9708C88.5604 90.1422 88.7866 89.316 89.0554 88.4978C89.3473 87.6681 89.615 86.8106 90.1746 86.1069L90.5566 86.427L90.5554 86.4281Z" fill="#2D0000"/>
<path d="M95.4316 87.3413C98.2558 87.3413 100.545 86.8612 100.545 86.2689C100.545 85.6767 98.2558 85.1965 95.4316 85.1965C92.6073 85.1965 90.3177 85.6767 90.3177 86.2689C90.3177 86.8612 92.6073 87.3413 95.4316 87.3413Z" fill="#808080"/>
<path d="M100.928 86.2688C100.874 87.243 98.8757 87.3065 98.1522 87.4279C96.3326 87.6232 94.5211 87.7306 92.6899 87.5769C91.8857 87.4776 89.8492 87.3574 89.8042 86.2688C89.818 85.1987 91.8534 84.8913 92.6634 84.7504C94.048 84.5539 95.4268 84.5158 96.8138 84.6117C97.7495 84.6903 98.6726 84.8012 99.5703 85.1282C100.072 85.3316 100.904 85.5986 100.927 86.2688H100.928ZM100.162 86.2688C100.152 86.315 100.185 86.3543 100.153 86.3312C99.9164 86.1856 99.6118 86.1336 99.3187 86.0816C98.9057 86.0169 98.4753 85.9799 98.0449 85.9395C97.1795 85.8586 96.3026 85.8332 95.4315 85.8332C94.5557 85.8332 93.6799 85.8701 92.8203 85.9637C92.143 86.0504 91.37 86.1244 90.7988 86.4098C90.808 86.3948 90.8357 86.3416 90.83 86.2688C90.83 86.196 90.7977 86.1463 90.7873 86.1359C90.7838 86.1313 90.7815 86.1313 90.7827 86.1348C90.7896 86.1405 90.7884 86.1452 90.8 86.1533C90.9927 86.3127 91.2719 86.404 91.5361 86.4918C91.9365 86.6167 92.3646 86.7091 92.7949 86.7842C93.6592 86.931 94.5453 87.0142 95.4326 87.0512C96.7503 87.0881 98.1107 87.0454 99.3684 86.6409C99.6464 86.5438 99.9418 86.441 100.148 86.2607C100.161 86.2492 100.166 86.2399 100.176 86.2295C100.181 86.2214 100.184 86.2145 100.185 86.2122C100.184 86.2076 100.163 86.2284 100.163 86.2688H100.162Z" fill="#2D0000"/>
<path d="M109.431 69.8396C109.431 69.8396 100.173 77.4573 100.166 88.2875C100.157 102.002 111.518 100.803 111.513 93.9939C111.508 87.1851 112.475 79.3051 116.433 74.8433" fill="#808080"/>
<path d="M109.468 69.8846C104.855 74.6491 101.174 80.9621 101.1 87.7247C101.082 89.8579 101.345 92.1182 102.155 94.07C102.963 96.0646 104.7 97.9702 106.989 97.8384C108.853 97.7552 110.309 96.2356 110.445 94.3959C110.55 90.089 110.914 85.7532 112.304 81.637C113.158 79.1178 114.428 76.6275 116.392 74.8051L116.479 74.8814L116.202 75.287C115.576 76.2288 115.061 77.2492 114.645 78.2996C113.238 81.9051 112.793 85.7833 112.611 89.6337C112.551 91.0817 112.535 92.5389 112.56 93.9903C112.558 94.1821 112.558 94.3751 112.541 94.5693C112.431 96.5684 111.239 98.5029 109.423 99.395C106.389 100.912 103.01 99.5164 101.247 96.788C98.6807 92.7827 98.8226 87.0197 100.185 82.632C101.398 78.7757 103.649 75.3205 106.439 72.4315C107.36 71.4781 108.336 70.5825 109.398 69.7944L109.47 69.8834L109.468 69.8846Z" fill="#2D0000"/>
<path d="M92.1154 89.1775C92.1154 89.1775 90.7804 93.1366 90.3177 96.9593L92.1154 89.1775Z" fill="#808080"/>
<path d="M92.1696 89.1959C91.8246 90.4798 91.5396 91.7821 91.3019 93.0903C91.0654 94.3903 90.8877 95.7031 90.793 97.017L89.8423 96.9014C89.9646 96.2335 90.0984 95.5702 90.2588 94.915C90.5738 93.608 90.9557 92.3206 91.3815 91.0472C91.595 90.4128 91.8188 89.783 92.0611 89.1589L92.1707 89.1959H92.1696Z" fill="#2D0000"/>
<path d="M94.5881 88.3281C94.5881 88.3281 93.1746 94.9092 93.3165 97.5983L94.5881 88.3281Z" fill="#808080"/>
<path d="M94.6445 88.3407C94.2476 90.6438 93.8968 92.9619 93.718 95.2904C93.6626 96.0601 93.6245 96.8401 93.6822 97.5797L92.9507 97.6178C92.9415 96.7939 93.0361 96.0115 93.1434 95.2292C93.4768 92.8983 93.9811 90.5999 94.5315 88.3164L94.6445 88.3407Z" fill="#2D0000"/>
<path d="M48.3943 56.6392C48.3943 56.6392 50.2889 45.0139 59.4261 42.5444C65.3176 40.952 70.5791 50.0928 57.7381 55.5391C52.5308 57.7474 52.0704 65.9672 52.0704 65.9672" fill="#808080"/>
<path d="M48.3365 56.6288C48.9215 52.234 50.7272 47.8254 53.973 44.7238C55.233 43.5439 56.7445 42.5883 58.3737 41.985L59.2045 41.7077C60.1287 41.4523 61.1129 41.3795 62.0579 41.5783C64.3598 42.0151 66.2036 43.8964 66.6248 46.2041C66.784 47.1009 66.7217 48.0173 66.5013 48.8967C66.4563 49.0365 66.3283 49.4398 66.2798 49.5866C66.2163 49.7379 66.0536 50.0973 65.9913 50.2406C65.9244 50.377 65.726 50.719 65.6498 50.8577C65.5183 51.0923 65.2829 51.402 65.1329 51.6296C64.9437 51.8689 64.7452 52.1011 64.549 52.3334L63.9179 52.9782L63.2487 53.5676C63.0191 53.7536 62.7814 53.9235 62.5471 54.1015C62.3544 54.254 62.0302 54.4551 61.8237 54.5926L61.4591 54.8306L61.0841 55.0467C60.0191 55.6777 58.8399 56.1677 57.7068 56.6553C54.4807 58.3194 53.0522 62.6344 52.128 65.9683L52.0126 65.9613C51.783 63.1405 52.3357 60.1891 53.8345 57.7451C54.5534 56.5802 55.5699 55.5691 56.7768 54.8907C57.8429 54.3476 58.9806 53.853 59.9845 53.2036L60.3156 53.0048C60.4725 52.895 60.7898 52.6801 60.9479 52.5715C61.2571 52.3588 61.556 52.1104 61.8479 51.8781L62.4075 51.3835L62.9221 50.8565L63.386 50.3007C63.4979 50.1308 63.6906 49.8916 63.7898 49.7171L63.9652 49.4155C64.0725 49.2456 64.1764 48.9775 64.2652 48.7973C64.2952 48.7014 64.4002 48.4159 64.4337 48.3212C64.6506 47.5411 64.6875 46.6964 64.4267 45.9233C63.889 44.2049 62.0994 43.1048 60.3272 43.2747C59.921 43.2851 59.3129 43.4688 58.9172 43.5809C57.4495 44.0512 56.0856 44.7781 54.8857 45.7685C52.0299 48.1132 50.1192 51.5904 48.9203 55.0837C48.7461 55.598 48.5799 56.1191 48.4496 56.6461L48.3353 56.6276L48.3365 56.6288Z" fill="#2D0000"/>
<path d="M49.299 60.7972C49.299 60.7972 50.4124 53.3529 58.3 50.0918L49.299 60.7972Z" fill="#808080"/>
<path d="M49.2412 60.7888C49.2412 55.7574 53.4296 51.046 58.2781 50.0383L58.3219 50.1446C56.1942 51.5475 54.2454 53.0845 52.6946 55.0837C52.0612 55.8752 51.4889 56.7339 50.972 57.6052C50.3777 58.6175 49.8401 59.6772 49.3566 60.805L49.2424 60.7877L49.2412 60.7888Z" fill="#2D0000"/>
<path d="M92.4131 63.3105C88.1116 73.5791 76.459 79.1722 65.7018 76.5328C52.135 73.4069 43.9866 58.7597 48.9792 45.6506C49.3935 44.5679 49.8954 43.5243 50.4677 42.5178L50.5715 42.5687C49.4108 45.3976 48.7335 48.3883 48.6631 51.3847C48.2858 63.3081 56.9972 73.7478 68.8448 75.2374C76.2156 76.2173 83.9336 73.348 88.9562 67.8404C90.2416 66.4618 91.362 64.889 92.3104 63.2573L92.4143 63.3082L92.4131 63.3105Z" fill="#2D0000"/>
<path d="M3.60327 128.467C20.7447 113.539 46.0945 98.7593 69.3408 99.1626C70.947 99.1996 72.5473 99.3036 74.135 99.4746L74.1293 99.5902C72.5347 99.6087 70.947 99.6942 69.3685 99.8456C49.0864 102.092 31.075 114.655 16.5505 128.313C14.4009 130.378 12.3055 132.484 10.3301 134.706C10.2759 134.77 10.2055 134.847 10.1744 134.889L3.60327 128.467Z" fill="#2D0000"/>
<path d="M38.7704 71.6595C39.0227 67.8046 34.7358 64.3848 29.1953 64.0211C23.6549 63.6574 18.9589 66.4876 18.7067 70.3424C18.4544 74.1973 22.7413 77.6171 28.2817 77.9808C33.8222 78.3445 38.5181 75.5143 38.7704 71.6595Z" fill="#808080"/>
<path d="M19.6904 70.4114C19.4181 72.3747 20.7115 74.2456 22.2784 75.4243C24.4477 77.0838 27.2457 77.8187 29.9642 77.8892C33.5376 78.0267 38.3699 75.6659 38.4252 71.6421C38.4218 69.5042 36.8526 67.7731 35.0687 66.7886C33.2618 65.7774 31.1722 65.3383 29.1138 65.3221C28.0834 65.3187 27.075 65.4955 26.0988 65.678C23.4461 66.1345 20.1704 67.4484 19.6915 70.4114H19.6904ZM17.7266 70.2819C17.8316 66.1553 21.8423 63.3599 25.5784 62.7278C26.805 62.5129 28.0592 62.5949 29.2834 62.729C31.7076 63.019 34.081 63.8765 36.0172 65.3822C37.921 66.8406 39.4522 69.2119 39.1222 71.6883C38.6122 75.333 34.9222 77.2421 31.6476 77.8257C29.4219 78.318 27.0807 78.3584 24.8515 77.7667C21.3865 76.9278 17.6619 74.2248 17.7277 70.2819H17.7266Z" fill="#2D0000"/>
<path d="M33.4449 81.0877C36.0003 76.0799 34.857 70.3746 30.8912 68.3447C26.9254 66.3149 21.6388 68.729 19.0834 73.7369C16.5279 78.7448 17.6712 84.45 21.637 86.4799C25.6029 88.5098 30.8894 86.0956 33.4449 81.0877Z" fill="#808080"/>
<path d="M20.1763 87.7939C20.1763 87.7939 17.2802 90.9163 13.5337 88.307C11.0483 86.5748 10.1102 82.1061 15.7283 76.9244C19.5775 73.3744 18.4859 69.4812 24.1663 68.6665" fill="#808080"/>
<path d="M20.1786 87.7961C19.2648 88.917 17.9425 89.6797 16.4691 89.7953C15.321 89.8831 14.1602 89.5457 13.1414 89.0303C10.5776 87.4968 10.228 84.134 11.3195 81.5848C12.1479 79.5521 13.6249 77.8407 15.2102 76.4043C15.7075 75.9882 16.161 75.5341 16.5775 75.0337C18.411 72.8762 19.0998 69.9167 22.1159 69.0142C22.7794 68.8108 23.4913 68.6849 24.1675 68.6687C23.504 68.8212 22.8475 69.0269 22.2371 69.3216C20.2121 70.2519 19.5844 72.0731 18.6694 73.9509C18.3614 74.5807 18.0106 75.2082 17.5998 75.8057C17.1902 76.4019 16.7194 76.9717 16.2048 77.4836C15.2437 78.3977 14.3691 79.3938 13.6837 80.4835C12.7006 82.0609 12.0695 83.8937 12.6268 85.6571C12.8922 86.466 13.4045 87.1478 14.061 87.6736C15.7779 89.3781 18.269 89.2695 20.1786 87.7961Z" fill="#2D0000"/>
<path d="M25.2716 89.9374C25.2716 89.9374 19.8174 95.9523 16.5174 93.5845C13.8878 91.6974 13.6513 88.8685 17.0205 85.6421C19.5543 83.2141 20.1624 78.8044 23.1624 77.6465" fill="#808080"/>
<path d="M25.2739 89.9397C23.4889 92.1642 20.1797 95.5455 17.0401 94.7758C16.6536 94.6788 16.274 94.5089 15.937 94.2951C15.3197 93.9057 14.7001 93.4712 14.2559 92.8552C13.079 91.1923 13.3582 88.9944 14.4382 87.3673C14.8132 86.7676 15.2609 86.251 15.727 85.7737C16.154 85.3231 16.6409 84.9625 17.0632 84.5118C18.3162 83.1702 19.102 81.5096 20.2097 79.9888C20.9481 78.9777 21.9197 77.9596 23.1624 77.6499C22.6016 77.9307 22.1331 78.3398 21.7478 78.8055C20.572 80.2777 20.077 82.0458 19.207 83.7445C18.7755 84.6147 18.232 85.5103 17.5455 86.236C16.2324 87.6423 14.7405 89.7825 16.0674 91.6222C16.7516 92.7559 17.5397 93.574 19.0085 93.3903C21.3001 93.0852 23.5362 91.4119 25.2727 89.9408L25.2739 89.9397Z" fill="#2D0000"/>
<path d="M30.4038 67.7478C30.4038 67.7478 37.1664 68.128 40.231 73.1583C43.2956 78.1886 39.7868 84.4127 45.8745 86.4731C58.1755 90.6378 43.0499 110.451 32.0169 87.8448" fill="#808080"/>
<path d="M30.4038 67.743C34.8542 68.0412 39.683 70.2992 41.3099 74.7286C42.2503 77.1623 42.0495 79.8456 42.6345 82.3243C43.0856 84.2137 44.2372 85.3312 46.0729 85.8859C46.7191 86.0927 47.3571 86.3539 47.9629 86.7017C49.1998 87.4009 50.274 88.4895 50.814 89.838C52.1006 92.9778 50.4079 96.6352 47.6652 98.3756C44.8118 100.125 41.1795 99.3509 38.6595 97.4106C35.5026 95.0151 33.5088 91.4351 32.0134 87.8446L32.0203 87.8412C33.3011 90.068 34.7469 92.2082 36.5053 94.0086C38.5534 96.1129 41.3468 97.9861 44.3618 97.5539C44.9122 97.4754 45.4406 97.3032 45.9402 97.079C46.9487 96.6364 47.9041 95.9985 48.5583 95.0891C49.9279 93.2921 50.139 90.6955 48.5906 88.9482C47.8337 88.0642 46.7791 87.4598 45.6783 87.0565C45.0345 86.8208 44.3987 86.5134 43.8252 86.0881C42.016 84.7881 41.5614 82.6491 41.4391 80.569C41.281 78.0394 41.2949 75.4543 39.9657 73.2344C38.0099 69.9052 34.0984 68.2053 30.405 67.7407L30.4038 67.743Z" fill="#2D0000"/>
<path d="M35.6988 84.0613C35.6988 84.0613 27.6012 122.897 8.50401 117.114C-0.734768 114.316 0.908296 105.962 4.95596 103.285C10.9317 99.3313 27.4685 89.8936 27.6842 80.1357" fill="#808080"/>
<path d="M35.7 84.0626C33.5112 95.0199 27.6174 114.669 15.8759 118.392C12.5956 119.441 8.99905 119.051 5.86869 117.666C4.26832 116.958 2.62064 115.89 1.56373 114.391C-1.1051 110.753 0.120275 105.235 3.58756 102.565C3.97755 102.251 4.58101 101.903 5.0137 101.638C10.7356 98.2417 16.5498 94.879 21.4766 90.3733C24.3924 87.6264 27.307 84.2995 27.682 80.1382H27.6854C27.7662 83.3207 26.1808 86.2871 24.3266 88.7786C21.1547 92.9653 17.0286 96.3165 12.8436 99.432C10.5521 101.119 8.17175 102.72 5.84908 104.344C5.59062 104.526 5.35177 104.721 5.12793 104.943C3.75717 106.329 3.06141 108.421 3.42256 110.344C3.57371 111.108 3.88409 111.843 4.3064 112.496C5.00216 113.585 5.946 114.394 7.13445 115.016C8.75905 115.848 10.6375 116.383 12.4756 116.41C25.1574 116.546 33.0496 94.3081 35.7011 84.0637L35.7 84.0626Z" fill="#2D0000"/>
<path d="M27.1359 108.362C27.1359 108.362 32.147 111.131 32.8358 112.966C33.5247 114.801 34.2723 121.533 34.2723 121.533C34.2723 121.533 33.055 123.025 29.0143 123.288C24.9736 123.551 27.1359 108.362 27.1359 108.362Z" fill="#808080"/>
<path d="M27.1106 108.31C27.1268 108.301 27.1602 108.306 27.1718 108.314L27.1798 108.316L27.1948 108.321L27.226 108.33C27.2537 108.336 27.3771 108.381 27.4094 108.39C29.3329 109.065 32.2198 110.474 33.4025 112.193C33.6309 112.529 33.7752 112.963 33.8906 113.344C34.2817 114.675 34.5055 116.032 34.6959 117.397C34.8886 118.86 35.0121 120.327 35.0121 121.809C34.9105 121.924 34.7686 122.099 34.6532 122.192C33.1152 123.444 31.0233 123.748 29.1229 123.846C28.2575 123.924 27.5248 123.407 27.1279 122.686C25.4975 119.768 26.4771 112.405 26.971 109.024L27.0241 108.689L27.0518 108.522L27.0656 108.439L27.0725 108.395C27.076 108.365 27.0945 108.33 27.1106 108.311V108.31ZM27.1625 108.413C27.1752 108.422 27.1891 108.415 27.1891 108.413C27.181 108.481 27.1671 108.634 27.1591 108.705C26.9987 110.385 26.8948 112.083 26.8579 113.768C26.8245 115.556 26.8498 117.362 27.0864 119.129C27.2064 119.978 27.3737 120.855 27.7083 121.632C27.9806 122.239 28.3637 122.832 29.0456 122.717C30.3725 122.575 31.6948 122.305 32.8579 121.679C33.1706 121.503 33.4682 121.315 33.7059 121.057C33.7071 121.055 33.7175 121.043 33.7002 121.061L33.5375 121.612C33.0459 119.397 32.7229 116.98 32.3398 114.742C32.244 114.222 32.1563 113.709 32.004 113.216C31.8921 112.929 31.7052 112.685 31.4744 112.403C30.2352 110.984 28.6256 109.756 27.2052 108.496L27.1568 108.454L27.1325 108.433L27.121 108.422L27.1152 108.417C27.1152 108.417 27.1106 108.413 27.1152 108.415C27.1279 108.422 27.1521 108.421 27.1637 108.413H27.1625Z" fill="#2D0000"/>
<path d="M3.40723 120.307L7.75604 109.283C7.75604 109.283 18.8675 106.057 27.137 109.283L29.0155 122.994C29.0155 122.994 12.7498 124.608 3.40838 120.307H3.40723Z" fill="#808080"/>
<path d="M2.59149 120.634C4.0534 116.647 5.62031 112.616 7.24376 108.701C10.5714 107.737 13.9787 107.152 17.4425 106.984C21.046 106.82 24.7255 107.166 28.1063 108.51C28.2274 109.442 29.9697 123.04 30.0747 123.849C22.2586 124.549 11.993 124.468 4.60147 121.75L4.20801 121.6L4.01071 121.525C3.49609 121.326 2.96879 120.971 2.59033 120.633L2.59149 120.634ZM4.22301 119.977C4.43763 119.914 4.50224 119.827 4.61301 119.865C4.74685 119.92 5.0757 120.037 5.21647 120.093C8.70105 121.362 12.4153 121.884 16.1041 122.167C20.3606 122.468 24.6702 122.421 28.9209 122.053L28.0786 123.122L26.0836 109.427C26.0836 109.427 26.7505 110.273 26.7494 110.273C25.3094 109.688 23.7886 109.297 22.2448 109.062C20.6756 108.825 19.0821 108.73 17.4898 108.743C14.2925 108.782 11.0572 109.186 7.9476 109.951L8.3999 109.539C7.0753 113.082 5.69992 116.505 4.2207 119.978L4.22301 119.977Z" fill="#2D0000"/>
</g>
<defs>
<clipPath id="clip0_437_9864">
<rect width="136.753" height="135" fill="white" transform="translate(0.116943)"/>
</clipPath>
</defs>
</svg>
