<svg width="21" height="5" viewBox="0 0 21 5" fill="none" xmlns="http://www.w3.org/2000/svg">
<rect x="0.730591" y="1.18665" width="3.69261" height="0.923154" fill="#E2E2E2"/>
<path d="M6.62323 2.12973V0.442208H7.08481V1.97834C7.08481 2.33283 7.10696 2.74271 7.70517 2.74271C8.30337 2.74271 8.32553 2.33283 8.32553 1.97834V0.442208H8.7871V2.12973C8.7871 2.80548 8.35507 3.14151 7.70517 3.14151C7.05527 3.14151 6.62323 2.80548 6.62323 2.12973ZM9.14041 0.841011V0.442208H11.2747V0.841011H10.4365V3.07874H9.97494V0.841011H9.14041ZM11.6542 3.07874V0.442208H12.1158V3.07874H11.6542ZM12.7558 3.07874V0.442208H13.2174V2.67993H14.5578V3.07874H12.7558ZM14.95 3.07874V0.442208H15.4116V3.07874H14.95ZM15.8005 0.841011V0.442208H17.9349V0.841011H17.0966V3.07874H16.6351V0.841011H15.8005ZM19.0012 3.07874V2.0448L18.0116 0.442208H18.547L19.2449 1.62385L19.9317 0.442208H20.4487L19.4628 2.0448V3.07874H19.0012Z" fill="#E2E2E2"/>
</svg>
